<?xml version="1.0" encoding="UTF-8"?>
<!DOCTYPE svg PUBLIC "-//W3C//DTD SVG 1.1//EN" "http://www.w3.org/Graphics/SVG/1.1/DTD/svg11.dtd">
<svg xmlns="http://www.w3.org/2000/svg" version="1.1" width="506px" height="493px" style="shape-rendering:geometricPrecision; text-rendering:geometricPrecision; image-rendering:optimizeQuality; fill-rule:evenodd; clip-rule:evenodd" xmlns:xlink="http://www.w3.org/1999/xlink">
<g><path style="opacity:0.999" fill="#1d723a" d="M 223.5,-0.5 C 241.167,-0.5 258.833,-0.5 276.5,-0.5C 276.833,0.833333 277.167,0.833333 277.5,-0.5C 279.167,-0.5 280.833,-0.5 282.5,-0.5C 285.345,0.343778 288.345,1.01044 291.5,1.5C 291.414,2.4959 291.748,3.32924 292.5,4C 294.81,4.49665 297.143,4.66331 299.5,4.5C 299.698,9.996 298.864,15.3293 297,20.5C 293.987,22.9259 290.821,23.0925 287.5,21C 265.29,18.9046 243.123,19.0713 221,21.5C 220.228,21.3552 219.561,21.0219 219,20.5C 214.629,21.6733 210.296,23.0066 206,24.5C 204.374,23.9818 202.707,23.6484 201,23.5C 197.301,25.5949 193.301,26.9282 189,27.5C 186.791,27.4428 185.291,26.4428 184.5,24.5C 183.012,21.0713 181.346,17.5713 179.5,14C 179.854,12.3745 179.854,10.5412 179.5,8.5C 194.283,5.46554 208.95,2.46554 223.5,-0.5 Z"/></g>
<g><path style="opacity:1" fill="#22733d" d="M 310.5,5.5 C 351.05,15.1835 387.216,33.5168 419,60.5C 419.667,61.8333 419.667,63.1667 419,64.5C 414.24,69.2601 409.573,73.9268 405,78.5C 375.844,53.6704 342.677,36.337 305.5,26.5C 307.044,19.4411 308.711,12.4411 310.5,5.5 Z"/></g>
<g><path style="opacity:0.741" fill="#37774e" d="M 291.5,1.5 C 295.101,2.34902 298.768,3.01569 302.5,3.5C 301.322,10.5558 299.822,17.5558 298,24.5C 297.439,25.0219 296.772,25.3552 296,25.5C 259.449,18.8679 223.282,20.5346 187.5,30.5C 186.558,30.3918 185.725,30.0585 185,29.5C 183.964,27.701 183.797,26.0343 184.5,24.5C 185.291,26.4428 186.791,27.4428 189,27.5C 193.301,26.9282 197.301,25.5949 201,23.5C 202.707,23.6484 204.374,23.9818 206,24.5C 210.296,23.0066 214.629,21.6733 219,20.5C 219.561,21.0219 220.228,21.3552 221,21.5C 243.123,19.0713 265.29,18.9046 287.5,21C 290.821,23.0925 293.987,22.9259 297,20.5C 298.864,15.3293 299.698,9.996 299.5,4.5C 297.143,4.66331 294.81,4.49665 292.5,4C 291.748,3.32924 291.414,2.4959 291.5,1.5 Z"/></g>
<g><path style="opacity:1" fill="#22743e" d="M 169.5,11.5 C 171.284,12.5738 172.451,14.2404 173,16.5C 175.128,22.3452 176.628,28.3452 177.5,34.5C 143.08,46.0442 113.08,64.7109 87.5,90.5C 86.6143,91.325 86.281,92.325 86.5,93.5C 84.712,93.7852 83.0453,93.4519 81.5,92.5C 77.5134,88.4026 73.3468,84.4026 69,80.5C 68.3333,79.5 68.3333,78.5 69,77.5C 96.5011,48.2995 128.834,27.2995 166,14.5C 167.145,13.3636 168.312,12.3636 169.5,11.5 Z"/></g>
<g><path style="opacity:1" fill="#21733c" d="M 233.5,29.5 C 253.626,28.7507 273.626,29.9174 293.5,33C 294.516,33.5194 295.182,34.3527 295.5,35.5C 294.141,41.4623 292.974,47.4623 292,53.5C 291.481,54.5156 290.647,55.1822 289.5,55.5C 267.354,50.708 245.187,50.3746 223,54.5C 222.667,54.1667 222.333,53.8333 222,53.5C 212.441,56.7309 202.941,58.5643 193.5,59C 194.022,58.4387 194.355,57.772 194.5,57C 192.4,51.5327 190.4,46.0327 188.5,40.5C 188.608,39.5581 188.941,38.7247 189.5,38C 204.116,34.1787 218.782,31.3454 233.5,29.5 Z"/></g>
<g><path style="opacity:1" fill="#23733d" d="M 303.5,35.5 C 339.835,43.8325 371.835,60.3325 399.5,85C 394.672,90.828 389.505,96.328 384,101.5C 359.61,79.8608 331.777,65.1942 300.5,57.5C 300.167,56.5 299.833,55.5 299.5,54.5C 300.995,48.1883 302.328,41.855 303.5,35.5 Z"/></g>
<g><path style="opacity:0.561" fill="#f7eb7c" d="M 272.5,66.5 C 272.294,68.5492 271.461,68.8825 270,67.5C 269.667,72.8333 269.333,78.1667 269,83.5C 268.617,84.056 268.117,84.3893 267.5,84.5C 268.936,78.4167 268.603,72.4167 266.5,66.5C 261.47,65.1712 256.47,65.1712 251.5,66.5C 251.062,66.5654 250.728,66.3988 250.5,66C 251.579,65.044 252.745,64.2106 254,63.5C 258.801,64.1916 263.635,64.8582 268.5,65.5C 269.086,65.2907 269.586,64.9574 270,64.5C 270.417,65.756 271.25,66.4226 272.5,66.5 Z"/></g>
<g><path style="opacity:1" fill="#fbe117" d="M 252.5,78.5 C 254.652,81.5034 256.652,84.67 258.5,88C 257.293,89.3002 256.626,90.8002 256.5,92.5C 248.368,90.4341 241.035,86.7674 234.5,81.5C 233.826,79.9755 232.826,78.6422 231.5,77.5C 226.305,75.6118 221.638,72.9451 217.5,69.5C 226.653,67.1844 235.986,66.1844 245.5,66.5C 246.311,71.4646 248.644,75.4646 252.5,78.5 Z"/></g>
<g><path style="opacity:0.718" fill="#f4e65d" d="M 252.5,78.5 C 248.644,75.4646 246.311,71.4646 245.5,66.5C 235.986,66.1844 226.653,67.1844 217.5,69.5C 221.638,72.9451 226.305,75.6118 231.5,77.5C 232.826,78.6422 233.826,79.9755 234.5,81.5C 227.729,78.2804 221.063,74.7804 214.5,71C 213.663,69.9887 213.33,68.8221 213.5,67.5C 224.401,65.4667 235.401,64.4667 246.5,64.5C 248.043,69.3717 250.043,74.0384 252.5,78.5 Z"/></g>
<g><path style="opacity:1" fill="#fde115" d="M 244.5,93.5 C 245.048,95.5323 246.381,96.5323 248.5,96.5C 248.5,98.1667 248.5,99.8333 248.5,101.5C 212.525,102.814 176.525,102.814 140.5,101.5C 140.863,100.817 141.196,100.15 141.5,99.5C 151.245,91.6091 161.912,85.1091 173.5,80C 183.533,76.1166 193.7,72.6166 204,69.5C 217.921,76.9491 231.421,84.9491 244.5,93.5 Z"/></g>
<g><path style="opacity:1" fill="#fae22e" d="M 296.5,69.5 C 302.095,71.4837 307.762,73.317 313.5,75C 314.167,75.6667 314.833,76.3333 315.5,77C 310.672,80.5814 305.672,83.9148 300.5,87C 296.684,88.9923 292.851,90.8256 289,92.5C 286.728,91.8049 285.228,90.3049 284.5,88C 287.428,80.9344 291.428,74.7677 296.5,69.5 Z"/></g>
<g><path style="opacity:1" fill="#fae126" d="M 267.5,84.5 C 265.44,85.8112 263.274,85.8112 261,84.5C 258.075,78.315 254.909,72.315 251.5,66.5C 256.47,65.1712 261.47,65.1712 266.5,66.5C 268.603,72.4167 268.936,78.4167 267.5,84.5 Z"/></g>
<g><path style="opacity:1" fill="#24743e" d="M 177.5,41.5 C 178.822,41.33 179.989,41.6634 181,42.5C 183.072,48.8816 185.238,55.2149 187.5,61.5C 187.167,62.1667 186.833,62.8333 186.5,63.5C 156.752,73.2842 130.752,89.7842 108.5,113C 106.741,113.798 105.074,113.631 103.5,112.5C 99.7255,108.653 95.7255,104.987 91.5,101.5C 90.4173,100.635 90.2506,99.635 91,98.5C 115.709,73.0742 144.542,54.0742 177.5,41.5 Z"/></g>
<g><path style="opacity:0.729" fill="#f3e764" d="M 272.5,66.5 C 273.097,65.8614 273.93,65.528 275,65.5C 279.167,66.3333 283.333,67.1667 287.5,68C 288.516,68.5194 289.182,69.3527 289.5,70.5C 277.573,92.8427 271.907,91.5093 272.5,66.5 Z"/></g>
<g><path style="opacity:1" fill="#fae011" d="M 274.5,67.5 C 278.481,68.0209 282.481,68.3542 286.5,68.5C 286.719,73.0604 285.052,76.7271 281.5,79.5C 280.571,80.6888 280.238,82.0222 280.5,83.5C 278.5,83.5 276.5,83.5 274.5,83.5C 274.5,78.1667 274.5,72.8333 274.5,67.5 Z"/></g>
<g><path style="opacity:1" fill="#fce117" d="M 358.5,99.5 C 358.5,100.5 358.5,101.5 358.5,102.5C 336.833,102.5 315.167,102.5 293.5,102.5C 293.579,101.07 293.246,99.7362 292.5,98.5C 294.149,96.6666 295.816,94.9999 297.5,93.5C 305.604,88.2744 313.937,83.2744 322.5,78.5C 335.515,83.9991 347.515,90.9991 358.5,99.5 Z"/></g>
<g><path style="opacity:1" fill="#22733d" d="M 423.5,68.5 C 426.187,68.3415 428.52,69.1748 430.5,71C 458.892,99.3724 479.892,132.372 493.5,170C 492.833,170.667 492.167,171.333 491.5,172C 484.947,173.684 478.614,175.851 472.5,178.5C 465.344,160.521 456.844,143.188 447,126.5C 440.333,117.833 433.667,109.167 427,100.5C 422.13,94.6286 416.63,89.4619 410.5,85C 415.102,79.5817 419.435,74.0817 423.5,68.5 Z"/></g>
<g><path style="opacity:1" fill="#22733e" d="M 60.5,84.5 C 61.397,85.5981 62.2303,85.5981 63,84.5C 67.503,89.5029 72.3363,94.1695 77.5,98.5C 78.4279,99.7678 78.5946,101.101 78,102.5C 73.6885,106.481 69.6885,110.814 66,115.5C 47.6988,140.802 35.0321,168.469 28,198.5C 27.4387,199.022 26.772,199.355 26,199.5C 19.4799,197.732 13.1465,196.399 7,195.5C 6.13008,194.892 5.63008,194.059 5.5,193C 12.3186,166.188 22.8186,141.021 37,117.5C 44.6892,106.325 52.5226,95.3247 60.5,84.5 Z"/></g>
<g><path style="opacity:0.127" fill="#f0e053" d="M 244.5,93.5 C 251.303,94.1116 252.97,97.2783 249.5,103C 212.162,103.833 174.829,103.667 137.5,102.5C 138.283,100.712 139.616,99.7118 141.5,99.5C 141.196,100.15 140.863,100.817 140.5,101.5C 176.525,102.814 212.525,102.814 248.5,101.5C 248.5,99.8333 248.5,98.1667 248.5,96.5C 246.381,96.5323 245.048,95.5323 244.5,93.5 Z"/></g>
<g><path style="opacity:0.129" fill="#efe05b" d="M 297.5,93.5 C 295.816,94.9999 294.149,96.6666 292.5,98.5C 293.246,99.7362 293.579,101.07 293.5,102.5C 315.167,102.5 336.833,102.5 358.5,102.5C 358.5,101.5 358.5,100.5 358.5,99.5C 361.5,99.1667 362.833,100.5 362.5,103.5C 338.824,103.833 315.157,103.5 291.5,102.5C 291.755,100.657 291.922,98.6565 292,96.5C 293.488,94.84 295.321,93.84 297.5,93.5 Z"/></g>
<g><path style="opacity:0.323" fill="#f7e864" d="M 226.5,128.5 C 226.714,126.856 226.38,125.356 225.5,124C 230.618,122.845 235.618,121.512 240.5,120C 241.337,118.989 241.67,117.822 241.5,116.5C 243.942,116.881 244.609,116.214 243.5,114.5C 245.259,113.246 246.759,113.579 248,115.5C 249.11,113.603 249.276,111.77 248.5,110C 208.5,109.333 168.5,109.333 128.5,110C 123.242,115.764 117.576,120.931 111.5,125.5C 116.63,119.869 121.964,114.369 127.5,109C 128.833,108.667 130.167,108.333 131.5,108C 170.833,107.333 210.167,107.333 249.5,108C 251.799,110.798 251.799,113.465 249.5,116C 242.099,120.7 234.432,124.866 226.5,128.5 Z"/></g>
<g><path style="opacity:0.351" fill="#f5e45e" d="M 383.5,120.5 C 381.833,120.5 380.167,120.5 378.5,120.5C 378.5,119.167 378.5,117.833 378.5,116.5C 377.5,116.5 376.5,116.5 375.5,116.5C 374.45,113.82 372.784,111.653 370.5,110C 344.835,109.5 319.169,109.333 293.5,109.5C 293.34,111.199 293.506,112.866 294,114.5C 295.992,115.328 297.492,116.661 298.5,118.5C 291.416,117.581 289.749,114.081 293.5,108C 319.167,107.333 344.833,107.333 370.5,108C 375.383,111.719 379.716,115.885 383.5,120.5 Z"/></g>
<g><path style="opacity:1" fill="#fee005" d="M 226.5,128.5 C 224.434,130.199 222.1,131.532 219.5,132.5C 217.473,132.338 215.473,132.505 213.5,133C 214.833,133.667 214.833,134.333 213.5,135C 208.383,136.556 203.216,137.723 198,138.5C 196.284,137.448 195.284,138.114 195,140.5C 192.421,141.376 189.754,141.376 187,140.5C 183.172,141.041 179.339,141.541 175.5,142C 177.271,142.535 177.604,143.369 176.5,144.5C 173.34,142.844 170.506,143.177 168,145.5C 167,144.833 166,144.167 165,143.5C 163.189,145.543 161.022,147.043 158.5,148C 137.194,152.163 115.861,156.163 94.5,160C 95.5243,161.367 95.0243,162.2 93,162.5C 91.8058,160.976 90.3058,159.81 88.5,159C 89.4162,158.626 90.2496,158.126 91,157.5C 91.7916,151.369 94.9583,148.202 100.5,148C 100.167,147.667 99.8333,147.333 99.5,147C 101.911,142.649 104.244,138.149 106.5,133.5C 107.991,132.756 109.491,132.09 111,131.5C 111.495,129.527 111.662,127.527 111.5,125.5C 117.576,120.931 123.242,115.764 128.5,110C 168.5,109.333 208.5,109.333 248.5,110C 249.276,111.77 249.11,113.603 248,115.5C 246.759,113.579 245.259,113.246 243.5,114.5C 244.609,116.214 243.942,116.881 241.5,116.5C 241.67,117.822 241.337,118.989 240.5,120C 235.618,121.512 230.618,122.845 225.5,124C 226.38,125.356 226.714,126.856 226.5,128.5 Z"/></g>
<g><path style="opacity:1" fill="#fcd910" d="M 375.5,116.5 C 374.19,118.148 372.857,119.814 371.5,121.5C 370.784,119.518 369.617,117.851 368,116.5C 362.756,118.345 357.756,120.679 353,123.5C 352.311,122.643 351.478,121.977 350.5,121.5C 344.427,122.524 339.761,125.524 336.5,130.5C 334.802,131.681 333.135,131.681 331.5,130.5C 334.096,128.703 333.763,127.369 330.5,126.5C 328.096,128.582 325.763,130.582 323.5,132.5C 315.97,128.489 308.303,124.655 300.5,121C 299.619,120.292 298.953,119.458 298.5,118.5C 297.492,116.661 295.992,115.328 294,114.5C 293.506,112.866 293.34,111.199 293.5,109.5C 319.169,109.333 344.835,109.5 370.5,110C 372.784,111.653 374.45,113.82 375.5,116.5 Z"/></g>
<g><path style="opacity:1" fill="#facd12" d="M 375.5,116.5 C 376.5,116.5 377.5,116.5 378.5,116.5C 378.5,117.833 378.5,119.167 378.5,120.5C 380.167,120.5 381.833,120.5 383.5,120.5C 385.11,123.466 386.777,126.466 388.5,129.5C 387.167,130.5 387.167,131.5 388.5,132.5C 387.5,133.167 386.5,133.833 385.5,134.5C 379.706,135.325 374.04,136.659 368.5,138.5C 367.554,138.013 366.554,137.68 365.5,137.5C 361.857,138.938 358.19,140.271 354.5,141.5C 351.821,140.76 349.154,141.094 346.5,142.5C 349.229,144.367 348.896,145.367 345.5,145.5C 337.801,141.656 330.468,137.322 323.5,132.5C 325.763,130.582 328.096,128.582 330.5,126.5C 333.763,127.369 334.096,128.703 331.5,130.5C 333.135,131.681 334.802,131.681 336.5,130.5C 339.761,125.524 344.427,122.524 350.5,121.5C 351.478,121.977 352.311,122.643 353,123.5C 357.756,120.679 362.756,118.345 368,116.5C 369.617,117.851 370.784,119.518 371.5,121.5C 372.857,119.814 374.19,118.148 375.5,116.5 Z"/></g>
<g><path style="opacity:1" fill="#f6e454" d="M 245.5,145.5 C 248.049,139.373 250.382,133.039 252.5,126.5C 253.5,126.5 254.5,126.5 255.5,126.5C 255.5,125.167 255.5,123.833 255.5,122.5C 251.681,122.414 248.015,123.081 244.5,124.5C 247.262,122.275 250.262,120.275 253.5,118.5C 255.5,119.833 257.167,121.5 258.5,123.5C 254.14,130.897 249.807,138.23 245.5,145.5 Z"/></g>
<g><path style="opacity:1" fill="#24743e" d="M 83.5,106.5 C 88.7717,108.256 93.105,111.423 96.5,116C 97.8333,116.333 99.1667,116.667 100.5,117C 100.374,118.974 100.208,121.141 100,123.5C 94.5443,129.051 89.5443,135.051 85,141.5C 72.3025,161.238 63.1358,182.571 57.5,205.5C 50.1421,204.295 42.8088,202.962 35.5,201.5C 43.86,165.778 59.86,134.112 83.5,106.5 Z"/></g>
<g><path style="opacity:0.004" fill="#fefffe" d="M 284.5,127.5 C 285.833,128.167 285.833,128.167 284.5,127.5 Z"/></g>
<g><path style="opacity:0.027" fill="#fcec82" d="M 268.5,182.5 C 268.83,164.326 268.497,146.326 267.5,128.5C 265.958,127.699 264.292,127.366 262.5,127.5C 262.762,128.978 262.429,130.311 261.5,131.5C 259.784,132.549 258.451,133.882 257.5,135.5C 258.634,132.101 259.967,128.768 261.5,125.5C 264.199,125.466 266.699,126.133 269,127.5C 269.829,146.005 269.662,164.338 268.5,182.5 Z"/></g>
<g><path style="opacity:1" fill="#fbd616" d="M 245.5,145.5 C 244.66,147.853 243.326,149.853 241.5,151.5C 240.5,151.5 239.5,151.5 238.5,151.5C 238.436,155.219 236.769,157.886 233.5,159.5C 233.662,157.473 233.495,155.473 233,153.5C 230.931,157.236 227.931,159.903 224,161.5C 220.651,156.446 217.151,156.279 213.5,161C 208.844,162.08 204.344,163.58 200,165.5C 198.933,163.717 197.433,163.217 195.5,164C 195.554,165.351 195.054,166.518 194,167.5C 192.347,167.18 191.347,166.18 191,164.5C 187.789,166.474 186.789,169.141 188,172.5C 184.834,173.361 182,172.528 179.5,170C 180.833,169 182.167,168 183.5,167C 183,166.5 182.5,166 182,165.5C 178.316,165.904 175.15,167.404 172.5,170C 174.013,172.023 175.346,171.856 176.5,169.5C 177.5,169.833 178.167,170.5 178.5,171.5C 176.845,175.485 174.845,175.985 172.5,173C 170.5,172.5 168.5,172 166.5,171.5C 160.083,174.728 153.749,178.228 147.5,182C 146.207,182.49 144.873,182.657 143.5,182.5C 176.706,162.278 210.373,142.945 244.5,124.5C 248.015,123.081 251.681,122.414 255.5,122.5C 255.5,123.833 255.5,125.167 255.5,126.5C 254.5,126.5 253.5,126.5 252.5,126.5C 250.382,133.039 248.049,139.373 245.5,145.5 Z"/></g>
<g><path style="opacity:1" fill="#fad122" d="M 345.5,151.5 C 340.54,149.921 335.54,148.421 330.5,147C 328.656,145.818 326.823,144.651 325,143.5C 323.831,144.009 322.998,144.842 322.5,146C 323.694,148.658 322.694,149.824 319.5,149.5C 319.5,148.167 319.5,146.833 319.5,145.5C 316.675,145.838 314.508,144.838 313,142.5C 311.938,145.029 311.105,147.696 310.5,150.5C 307.954,149.466 305.621,148.133 303.5,146.5C 301.833,146.5 300.167,146.5 298.5,146.5C 298.392,144.217 297.559,142.217 296,140.5C 295.329,139.748 294.496,139.414 293.5,139.5C 290.005,134.518 287.005,129.184 284.5,123.5C 285.468,121.365 286.968,119.698 289,118.5C 308.033,129.412 326.866,140.412 345.5,151.5 Z"/></g>
<g><path style="opacity:1" fill="#23733e" d="M 403.5,90.5 C 406.785,90.2693 409.285,91.6026 411,94.5C 433.88,118.246 451.213,145.579 463,176.5C 463.825,178.701 463.325,180.534 461.5,182C 455.591,183.061 449.925,184.894 444.5,187.5C 443.264,186.754 441.93,186.421 440.5,186.5C 431.902,156.32 415.902,130.654 392.5,109.5C 391.534,107.604 391.201,105.604 391.5,103.5C 396.842,100.489 400.842,96.1552 403.5,90.5 Z"/></g>
<g><path style="opacity:1" fill="#fcdc17" d="M 111.5,125.5 C 111.662,127.527 111.495,129.527 111,131.5C 109.491,132.09 107.991,132.756 106.5,133.5C 104.244,138.149 101.911,142.649 99.5,147C 99.8333,147.333 100.167,147.667 100.5,148C 94.9583,148.202 91.7916,151.369 91,157.5C 90.2496,158.126 89.4162,158.626 88.5,159C 90.3058,159.81 91.8058,160.976 93,162.5C 95.0243,162.2 95.5243,161.367 94.5,160C 115.861,156.163 137.194,152.163 158.5,148C 161.022,147.043 163.189,145.543 165,143.5C 166,144.167 167,144.833 168,145.5C 170.506,143.177 173.34,142.844 176.5,144.5C 177.604,143.369 177.271,142.535 175.5,142C 179.339,141.541 183.172,141.041 187,140.5C 189.754,141.376 192.421,141.376 195,140.5C 195.284,138.114 196.284,137.448 198,138.5C 203.216,137.723 208.383,136.556 213.5,135C 214.833,134.333 214.833,133.667 213.5,133C 215.473,132.505 217.473,132.338 219.5,132.5C 200.331,144.588 180.665,155.921 160.5,166.5C 158.516,167.156 156.516,167.822 154.5,168.5C 153.5,167.167 152.5,165.833 151.5,164.5C 149.4,166.598 146.9,168.265 144,169.5C 141.418,167.094 138.752,167.094 136,169.5C 135.275,168.941 134.442,168.608 133.5,168.5C 127.706,170.633 121.706,171.8 115.5,172C 113.337,172.245 111.67,173.245 110.5,175C 105.327,174.94 100.494,176.107 96,178.5C 95.2753,177.941 94.4419,177.608 93.5,177.5C 89.0036,179.753 84.3369,181.42 79.5,182.5C 79.3367,180.143 79.5034,177.81 80,175.5C 81.2952,171.785 82.4619,168.118 83.5,164.5C 90.639,149.875 99.9723,136.875 111.5,125.5 Z"/></g>
<g><path style="opacity:1" fill="#f8be16" d="M 383.5,120.5 C 396.503,132.185 406.837,145.852 414.5,161.5C 410.997,160.272 408.497,157.939 407,154.5C 403.73,156.267 400.897,158.6 398.5,161.5C 395.995,157.71 393.662,157.71 391.5,161.5C 390.311,162.429 388.978,162.762 387.5,162.5C 387.649,161.448 387.483,160.448 387,159.5C 384.364,159.545 381.53,159.712 378.5,160C 378.833,160.333 379.167,160.667 379.5,161C 378.167,161.333 376.833,161.667 375.5,162C 377.881,162.223 379.547,163.39 380.5,165.5C 368.401,159.616 356.734,152.95 345.5,145.5C 348.896,145.367 349.229,144.367 346.5,142.5C 349.154,141.094 351.821,140.76 354.5,141.5C 358.19,140.271 361.857,138.938 365.5,137.5C 366.554,137.68 367.554,138.013 368.5,138.5C 374.04,136.659 379.706,135.325 385.5,134.5C 386.5,133.833 387.5,133.167 388.5,132.5C 387.167,131.5 387.167,130.5 388.5,129.5C 386.777,126.466 385.11,123.466 383.5,120.5 Z"/></g>
<g><path style="opacity:1" fill="#face16" d="M 267.5,128.5 C 267.5,138.833 267.5,149.167 267.5,159.5C 266.778,159.082 266.278,158.416 266,157.5C 264.56,159.046 262.727,159.879 260.5,160C 259.95,161.845 258.95,163.345 257.5,164.5C 256.749,163.624 256.249,162.624 256,161.5C 255.667,162.167 255.333,162.833 255,163.5C 252.262,163.2 249.429,162.7 246.5,162C 245.636,165.359 243.636,167.526 240.5,168.5C 240.5,167.167 240.5,165.833 240.5,164.5C 245.413,154.332 251.08,144.666 257.5,135.5C 258.451,133.882 259.784,132.549 261.5,131.5C 262.429,130.311 262.762,128.978 262.5,127.5C 264.292,127.366 265.958,127.699 267.5,128.5 Z"/></g>
<g><path style="opacity:1" fill="#f8ca1d" d="M 308.5,175.5 C 306.866,174.793 305.532,173.627 304.5,172C 303.552,171.517 302.552,171.351 301.5,171.5C 299.116,166.564 296.616,161.564 294,156.5C 293.818,159.226 293.318,161.893 292.5,164.5C 290.605,163.027 288.939,161.36 287.5,159.5C 285.717,161.023 285.051,163.023 285.5,165.5C 283.799,165.034 282.299,165.034 281,165.5C 280.077,164.241 279.243,162.908 278.5,161.5C 277.048,163.641 276.048,165.975 275.5,168.5C 274.504,155.01 274.171,141.344 274.5,127.5C 277.015,125.158 279.515,125.158 282,127.5C 290.924,143.428 299.758,159.428 308.5,175.5 Z"/></g>
<g><path style="opacity:1" fill="#faca0c" d="M 233.5,159.5 C 233.27,163.504 232.103,167.171 230,170.5C 227.851,169.16 226.684,169.827 226.5,172.5C 226.649,173.552 226.483,174.552 226,175.5C 225.261,173.779 224.427,172.113 223.5,170.5C 216.341,172.956 209.008,174.79 201.5,176C 202.716,177.74 204.382,178.74 206.5,179C 201.94,179.475 197.274,178.642 192.5,176.5C 186.602,177.673 181.602,180.34 177.5,184.5C 170.377,183.566 163.377,183.233 156.5,183.5C 153.274,184.606 150.607,186.439 148.5,189C 146.5,189.667 144.5,189.667 142.5,189C 143.696,188.346 143.696,187.846 142.5,187.5C 139.791,189.461 136.958,191.128 134,192.5C 133.833,192 133.667,191.5 133.5,191C 135.351,189.317 137.017,187.484 138.5,185.5C 139.659,183.75 141.326,182.75 143.5,182.5C 144.873,182.657 146.207,182.49 147.5,182C 153.749,178.228 160.083,174.728 166.5,171.5C 168.5,172 170.5,172.5 172.5,173C 174.845,175.985 176.845,175.485 178.5,171.5C 178.167,170.5 177.5,169.833 176.5,169.5C 175.346,171.856 174.013,172.023 172.5,170C 175.15,167.404 178.316,165.904 182,165.5C 182.5,166 183,166.5 183.5,167C 182.167,168 180.833,169 179.5,170C 182,172.528 184.834,173.361 188,172.5C 186.789,169.141 187.789,166.474 191,164.5C 191.347,166.18 192.347,167.18 194,167.5C 195.054,166.518 195.554,165.351 195.5,164C 197.433,163.217 198.933,163.717 200,165.5C 204.344,163.58 208.844,162.08 213.5,161C 217.151,156.279 220.651,156.446 224,161.5C 227.931,159.903 230.931,157.236 233,153.5C 233.495,155.473 233.662,157.473 233.5,159.5 Z"/></g>
<g><path style="opacity:0.996" fill="#efc951" d="M 293.5,139.5 C 294.496,139.414 295.329,139.748 296,140.5C 297.559,142.217 298.392,144.217 298.5,146.5C 300.167,146.5 301.833,146.5 303.5,146.5C 303.616,149.86 303.949,153.193 304.5,156.5C 305.5,156.5 306.5,156.5 307.5,156.5C 307.838,158.854 308.338,161.187 309,163.5C 310.524,165.271 312.024,166.938 313.5,168.5C 313.892,170.179 314.392,171.846 315,173.5C 318.945,179.934 322.778,186.267 326.5,192.5C 327.11,193.391 327.443,194.391 327.5,195.5C 328.59,196.857 329.924,197.857 331.5,198.5C 328.192,199.026 326.026,197.693 325,194.5C 314.705,176.041 304.205,157.707 293.5,139.5 Z"/></g>
<g><path style="opacity:1" fill="#f9c00e" d="M 345.5,151.5 C 346.491,153.482 347.491,155.482 348.5,157.5C 349.293,157.069 350.127,156.735 351,156.5C 352.371,157.581 353.871,158.415 355.5,159C 354.833,159.667 354.167,160.333 353.5,161C 347.509,161.499 341.509,161.666 335.5,161.5C 335.5,162.833 335.5,164.167 335.5,165.5C 330.238,165.805 325.072,165.471 320,164.5C 317.887,166.271 318.053,167.771 320.5,169C 317.86,171.952 316.527,171.118 316.5,166.5C 314.821,166.285 313.821,166.952 313.5,168.5C 312.024,166.938 310.524,165.271 309,163.5C 308.338,161.187 307.838,158.854 307.5,156.5C 306.5,156.5 305.5,156.5 304.5,156.5C 303.949,153.193 303.616,149.86 303.5,146.5C 305.621,148.133 307.954,149.466 310.5,150.5C 311.105,147.696 311.938,145.029 313,142.5C 314.508,144.838 316.675,145.838 319.5,145.5C 319.5,146.833 319.5,148.167 319.5,149.5C 322.694,149.824 323.694,148.658 322.5,146C 322.998,144.842 323.831,144.009 325,143.5C 326.823,144.651 328.656,145.818 330.5,147C 335.54,148.421 340.54,149.921 345.5,151.5 Z"/></g>
<g><path style="opacity:1" fill="#f5af18" d="M 414.5,161.5 C 416.025,166.232 417.858,170.899 420,175.5C 419.652,179.988 421.152,183.655 424.5,186.5C 421.968,186.931 419.634,186.098 417.5,184C 415.866,183.506 414.199,183.34 412.5,183.5C 412.5,182.5 412.5,181.5 412.5,180.5C 408.442,178.406 404.275,176.406 400,174.5C 398.234,173.767 396.401,173.433 394.5,173.5C 389.5,171.336 384.833,168.669 380.5,165.5C 379.547,163.39 377.881,162.223 375.5,162C 376.833,161.667 378.167,161.333 379.5,161C 379.167,160.667 378.833,160.333 378.5,160C 381.53,159.712 384.364,159.545 387,159.5C 387.483,160.448 387.649,161.448 387.5,162.5C 388.978,162.762 390.311,162.429 391.5,161.5C 393.662,157.71 395.995,157.71 398.5,161.5C 400.897,158.6 403.73,156.267 407,154.5C 408.497,157.939 410.997,160.272 414.5,161.5 Z"/></g>
<g><path style="opacity:0.89" fill="#f5d85d" d="M 241.5,151.5 C 237.344,160.482 232.677,169.149 227.5,177.5C 227.784,175.585 227.451,173.919 226.5,172.5C 226.684,169.827 227.851,169.16 230,170.5C 232.103,167.171 233.27,163.504 233.5,159.5C 236.769,157.886 238.436,155.219 238.5,151.5C 239.5,151.5 240.5,151.5 241.5,151.5 Z"/></g>
<g><path style="opacity:1" fill="#f6b41a" d="M 345.5,151.5 C 362.47,160.651 379.136,170.318 395.5,180.5C 392.478,180.196 389.478,179.696 386.5,179C 384.561,178.092 383.561,176.592 383.5,174.5C 382.07,174.421 380.736,174.754 379.5,175.5C 377.729,174.965 377.396,174.131 378.5,173C 377.128,172.598 375.795,172.098 374.5,171.5C 372.585,172.709 370.752,174.042 369,175.5C 368.05,174.978 367.216,174.311 366.5,173.5C 363.433,175.02 360.433,176.687 357.5,178.5C 350.52,179.751 343.687,181.418 337,183.5C 336.667,183.167 336.333,182.833 336,182.5C 334.426,183.984 333.093,185.651 332,187.5C 331.825,184.843 331.992,182.176 332.5,179.5C 331.5,179.5 330.5,179.5 329.5,179.5C 329.874,184.297 329.208,184.964 327.5,181.5C 326.675,180.614 325.675,180.281 324.5,180.5C 325.376,184.462 326.042,188.462 326.5,192.5C 322.778,186.267 318.945,179.934 315,173.5C 314.392,171.846 313.892,170.179 313.5,168.5C 313.821,166.952 314.821,166.285 316.5,166.5C 316.527,171.118 317.86,171.952 320.5,169C 318.053,167.771 317.887,166.271 320,164.5C 325.072,165.471 330.238,165.805 335.5,165.5C 335.5,164.167 335.5,162.833 335.5,161.5C 341.509,161.666 347.509,161.499 353.5,161C 354.167,160.333 354.833,159.667 355.5,159C 353.871,158.415 352.371,157.581 351,156.5C 350.127,156.735 349.293,157.069 348.5,157.5C 347.491,155.482 346.491,153.482 345.5,151.5 Z"/></g>
<g><path style="opacity:1" fill="#fbd018" d="M 160.5,166.5 C 145.266,176.283 129.6,185.283 113.5,193.5C 112.305,193.678 111.138,194.011 110,194.5C 107.295,193.061 104.462,192.061 101.5,191.5C 101.5,192.833 101.5,194.167 101.5,195.5C 94.3087,196.202 87.6421,198.536 81.5,202.5C 81.1667,202.333 80.8333,202.167 80.5,202C 82.0163,200.103 82.683,197.936 82.5,195.5C 77.6578,194.662 74.9912,196.662 74.5,201.5C 75.2622,197.881 75.2622,194.214 74.5,190.5C 74.8844,188.071 75.551,185.737 76.5,183.5C 77.791,183.737 78.791,183.404 79.5,182.5C 84.3369,181.42 89.0036,179.753 93.5,177.5C 94.4419,177.608 95.2753,177.941 96,178.5C 100.494,176.107 105.327,174.94 110.5,175C 111.67,173.245 113.337,172.245 115.5,172C 121.706,171.8 127.706,170.633 133.5,168.5C 134.442,168.608 135.275,168.941 136,169.5C 138.752,167.094 141.418,167.094 144,169.5C 146.9,168.265 149.4,166.598 151.5,164.5C 152.5,165.833 153.5,167.167 154.5,168.5C 156.516,167.822 158.516,167.156 160.5,166.5 Z"/></g>
<g><path style="opacity:1" fill="#f8c010" d="M 267.5,159.5 C 267.5,166.833 267.5,174.167 267.5,181.5C 256.183,180.81 244.85,180.31 233.5,180C 234.423,177.14 235.423,174.307 236.5,171.5C 237.584,168.996 238.917,166.663 240.5,164.5C 240.5,165.833 240.5,167.167 240.5,168.5C 243.636,167.526 245.636,165.359 246.5,162C 249.429,162.7 252.262,163.2 255,163.5C 255.333,162.833 255.667,162.167 256,161.5C 256.249,162.624 256.749,163.624 257.5,164.5C 258.95,163.345 259.95,161.845 260.5,160C 262.727,159.879 264.56,159.046 266,157.5C 266.278,158.416 266.778,159.082 267.5,159.5 Z"/></g>
<g><path style="opacity:1" fill="#f6b81b" d="M 308.5,175.5 C 311.225,179.268 313.725,183.268 316,187.5C 319.916,189.055 320.249,191.388 317,194.5C 305.454,190.051 293.621,186.717 281.5,184.5C 279.898,182.926 277.898,182.259 275.5,182.5C 275.5,177.833 275.5,173.167 275.5,168.5C 276.048,165.975 277.048,163.641 278.5,161.5C 279.243,162.908 280.077,164.241 281,165.5C 282.299,165.034 283.799,165.034 285.5,165.5C 285.051,163.023 285.717,161.023 287.5,159.5C 288.939,161.36 290.605,163.027 292.5,164.5C 293.318,161.893 293.818,159.226 294,156.5C 296.616,161.564 299.116,166.564 301.5,171.5C 302.552,171.351 303.552,171.517 304.5,172C 305.532,173.627 306.866,174.793 308.5,175.5 Z"/></g>
<g><path style="opacity:0.945" fill="#eac241" d="M 267.5,128.5 C 268.497,146.326 268.83,164.326 268.5,182.5C 256.003,182.348 243.337,182.514 230.5,183C 230.167,182.667 229.833,182.333 229.5,182C 231.733,178.349 234.066,174.849 236.5,171.5C 235.423,174.307 234.423,177.14 233.5,180C 244.85,180.31 256.183,180.81 267.5,181.5C 267.5,174.167 267.5,166.833 267.5,159.5C 267.5,149.167 267.5,138.833 267.5,128.5 Z"/></g>
<g><path style="opacity:0.999" fill="#eab14d" d="M 414.5,161.5 C 420.318,171.276 424.985,181.609 428.5,192.5C 427.127,192.657 425.793,192.49 424.5,192C 414.496,185.734 404.496,179.568 394.5,173.5C 396.401,173.433 398.234,173.767 400,174.5C 404.275,176.406 408.442,178.406 412.5,180.5C 412.5,181.5 412.5,182.5 412.5,183.5C 414.199,183.34 415.866,183.506 417.5,184C 419.634,186.098 421.968,186.931 424.5,186.5C 421.152,183.655 419.652,179.988 420,175.5C 417.858,170.899 416.025,166.232 414.5,161.5 Z"/></g>
<g><path style="opacity:1" fill="#f5a716" d="M 395.5,180.5 C 395.5,181.5 395.5,182.5 395.5,183.5C 397.167,183.5 398.833,183.5 400.5,183.5C 399.833,185.5 399.167,187.5 398.5,189.5C 396.076,189.808 393.743,189.474 391.5,188.5C 391.113,187.28 390.28,186.613 389,186.5C 385.627,187.621 382.461,189.121 379.5,191C 373.259,191.055 367.259,192.222 361.5,194.5C 358.924,195.282 356.924,196.782 355.5,199C 350.441,199.935 345.608,199.435 341,197.5C 339.333,198.167 337.667,198.833 336,199.5C 333.633,197.315 330.8,195.982 327.5,195.5C 327.443,194.391 327.11,193.391 326.5,192.5C 326.042,188.462 325.376,184.462 324.5,180.5C 325.675,180.281 326.675,180.614 327.5,181.5C 329.208,184.964 329.874,184.297 329.5,179.5C 330.5,179.5 331.5,179.5 332.5,179.5C 331.992,182.176 331.825,184.843 332,187.5C 333.093,185.651 334.426,183.984 336,182.5C 336.333,182.833 336.667,183.167 337,183.5C 343.687,181.418 350.52,179.751 357.5,178.5C 360.433,176.687 363.433,175.02 366.5,173.5C 367.216,174.311 368.05,174.978 369,175.5C 370.752,174.042 372.585,172.709 374.5,171.5C 375.795,172.098 377.128,172.598 378.5,173C 377.396,174.131 377.729,174.965 379.5,175.5C 380.736,174.754 382.07,174.421 383.5,174.5C 383.561,176.592 384.561,178.092 386.5,179C 389.478,179.696 392.478,180.196 395.5,180.5 Z"/></g>
<g><path style="opacity:0.004" fill="#fffee2" d="M 225.5,181.5 C 226.525,181.897 226.692,182.563 226,183.5C 225.536,182.906 225.369,182.239 225.5,181.5 Z"/></g>
<g><path style="opacity:0.714" fill="#e9c654" d="M 274.5,127.5 C 274.171,141.344 274.504,155.01 275.5,168.5C 275.5,173.167 275.5,177.833 275.5,182.5C 277.898,182.259 279.898,182.926 281.5,184.5C 278.833,184.5 276.167,184.5 273.5,184.5C 273.826,166.59 273.492,148.757 272.5,131C 273.085,129.698 273.751,128.531 274.5,127.5 Z"/></g>
<g><path style="opacity:1" fill="#22733d" d="M 505.5,218.5 C 505.5,218.833 505.5,219.167 505.5,219.5C 504.167,220.833 504.167,222.167 505.5,223.5C 505.5,243.167 505.5,262.833 505.5,282.5C 504.167,283.833 504.167,285.167 505.5,286.5C 505.5,287.167 505.5,287.833 505.5,288.5C 504.351,288.791 503.684,289.624 503.5,291C 502.993,294.739 502.327,298.406 501.5,302C 494.172,300.834 486.839,299.334 479.5,297.5C 484.586,268.492 484.753,239.159 480,209.5C 478.433,201.802 476.266,194.302 473.5,187C 477.851,184.613 482.351,182.446 487,180.5C 487.333,180.833 487.667,181.167 488,181.5C 490.312,179.84 492.812,179.007 495.5,179C 498.974,192.217 502.308,205.384 505.5,218.5 Z"/></g>
<g><path style="opacity:1" fill="#f4bf2e" d="M 227.5,177.5 C 226.833,178.833 226.167,180.167 225.5,181.5C 224.733,182.172 224.066,183.005 223.5,184C 183.421,189.729 148.087,205.562 117.5,231.5C 116.833,231.5 116.5,231.167 116.5,230.5C 116.966,228.799 116.966,227.299 116.5,226C 118.107,226.019 119.774,226.185 121.5,226.5C 121.822,224.278 121.155,222.444 119.5,221C 121.762,219.953 123.929,218.787 126,217.5C 127.44,218.148 128.94,218.481 130.5,218.5C 130.433,217.041 130.766,215.708 131.5,214.5C 133.527,214.662 135.527,214.495 137.5,214C 139.887,211.905 142.553,210.405 145.5,209.5C 144.835,206.112 145.835,205.112 148.5,206.5C 150.29,205.214 151.957,203.714 153.5,202C 156,201.625 158.333,200.792 160.5,199.5C 161.488,195.622 159.822,193.456 155.5,193C 155.833,192.667 156.167,192.333 156.5,192C 162.605,190.306 168.771,189.139 175,188.5C 175.333,188.833 175.667,189.167 176,189.5C 178.178,186.532 179.344,186.865 179.5,190.5C 184.6,190.571 189.6,189.904 194.5,188.5C 193.145,187.325 193.312,186.325 195,185.5C 197.064,186.591 199.231,186.758 201.5,186C 205.18,183.663 208.68,181.829 212,180.5C 213.525,181.72 215.359,182.387 217.5,182.5C 221.506,182.939 223.84,181.273 224.5,177.5C 225.5,177.5 226.5,177.5 227.5,177.5 Z"/></g>
<g><path style="opacity:1" fill="#f2d751" d="M 83.5,164.5 C 82.4619,168.118 81.2952,171.785 80,175.5C 79.5034,177.81 79.3367,180.143 79.5,182.5C 78.791,183.404 77.791,183.737 76.5,183.5C 75.551,185.737 74.8844,188.071 74.5,190.5C 72.4479,194.862 70.4479,199.195 68.5,203.5C 71.7567,189.715 76.7567,176.715 83.5,164.5 Z"/></g>
<g><path style="opacity:1" fill="#f19a1d" d="M 395.5,180.5 C 407.435,186.469 419.102,192.969 430.5,200C 431.252,200.671 431.586,201.504 431.5,202.5C 434.065,218.705 435.731,235.039 436.5,251.5C 436.293,263.568 435.293,275.568 433.5,287.5C 432.833,288.833 432.167,290.167 431.5,291.5C 430.735,290.388 429.735,289.721 428.5,289.5C 427.596,288.791 427.263,287.791 427.5,286.5C 423.179,277.84 418.846,269.174 414.5,260.5C 411.365,260.452 409.698,258.785 409.5,255.5C 405.824,251.459 402.157,247.459 398.5,243.5C 396.138,242.12 393.805,240.787 391.5,239.5C 373.629,222.614 353.629,208.947 331.5,198.5C 329.924,197.857 328.59,196.857 327.5,195.5C 330.8,195.982 333.633,197.315 336,199.5C 337.667,198.833 339.333,198.167 341,197.5C 345.608,199.435 350.441,199.935 355.5,199C 356.924,196.782 358.924,195.282 361.5,194.5C 367.259,192.222 373.259,191.055 379.5,191C 382.461,189.121 385.627,187.621 389,186.5C 390.28,186.613 391.113,187.28 391.5,188.5C 393.743,189.474 396.076,189.808 398.5,189.5C 399.167,187.5 399.833,185.5 400.5,183.5C 398.833,183.5 397.167,183.5 395.5,183.5C 395.5,182.5 395.5,181.5 395.5,180.5 Z"/></g>
<g><path style="opacity:0.98" fill="#3883b0" d="M 281.5,204.5 C 279.926,202.898 279.259,200.898 279.5,198.5C 262.489,197.437 245.489,197.437 228.5,198.5C 226.97,198.36 225.97,197.693 225.5,196.5C 243.904,194.777 262.238,195.277 280.5,198C 281.423,200.041 281.756,202.208 281.5,204.5 Z"/></g>
<g><path style="opacity:1" fill="#f8c016" d="M 226.5,172.5 C 227.451,173.919 227.784,175.585 227.5,177.5C 226.5,177.5 225.5,177.5 224.5,177.5C 223.84,181.273 221.506,182.939 217.5,182.5C 215.359,182.387 213.525,181.72 212,180.5C 208.68,181.829 205.18,183.663 201.5,186C 199.231,186.758 197.064,186.591 195,185.5C 193.312,186.325 193.145,187.325 194.5,188.5C 189.6,189.904 184.6,190.571 179.5,190.5C 179.344,186.865 178.178,186.532 176,189.5C 175.667,189.167 175.333,188.833 175,188.5C 168.771,189.139 162.605,190.306 156.5,192C 156.167,192.333 155.833,192.667 155.5,193C 159.822,193.456 161.488,195.622 160.5,199.5C 158.333,200.792 156,201.625 153.5,202C 151.957,203.714 150.29,205.214 148.5,206.5C 145.835,205.112 144.835,206.112 145.5,209.5C 142.553,210.405 139.887,211.905 137.5,214C 135.527,214.495 133.527,214.662 131.5,214.5C 130.522,214.189 129.855,213.522 129.5,212.5C 125.634,211.998 121.967,210.998 118.5,209.5C 114.259,213.168 109.759,213.835 105,211.5C 101.924,212.764 98.7573,213.764 95.5,214.5C 94.8333,215.167 94.1667,215.833 93.5,216.5C 97.3709,217.141 98.0376,218.641 95.5,221C 93.8333,221.667 92.1667,221.667 90.5,221C 89.2259,219.779 87.7259,218.946 86,218.5C 84.0356,219.852 81.8689,220.686 79.5,221C 78.3333,222.833 76.8333,224.333 75,225.5C 74.586,225.043 74.086,224.709 73.5,224.5C 70.7864,226.536 67.7864,227.869 64.5,228.5C 73.0153,222.993 81.682,217.493 90.5,212C 106.394,202.888 122.394,194.055 138.5,185.5C 137.017,187.484 135.351,189.317 133.5,191C 133.667,191.5 133.833,192 134,192.5C 136.958,191.128 139.791,189.461 142.5,187.5C 143.696,187.846 143.696,188.346 142.5,189C 144.5,189.667 146.5,189.667 148.5,189C 150.607,186.439 153.274,184.606 156.5,183.5C 163.377,183.233 170.377,183.566 177.5,184.5C 181.602,180.34 186.602,177.673 192.5,176.5C 197.274,178.642 201.94,179.475 206.5,179C 204.382,178.74 202.716,177.74 201.5,176C 209.008,174.79 216.341,172.956 223.5,170.5C 224.427,172.113 225.261,173.779 226,175.5C 226.483,174.552 226.649,173.552 226.5,172.5 Z"/></g>
<g><path style="opacity:1" fill="#0b7bbf" d="M 225.5,196.5 C 225.97,197.693 226.97,198.36 228.5,198.5C 245.489,197.437 262.489,197.437 279.5,198.5C 279.259,200.898 279.926,202.898 281.5,204.5C 281.969,213.336 281.469,222.003 280,230.5C 260.333,229.167 240.667,229.167 221,230.5C 219.524,219.663 219.024,208.663 219.5,197.5C 221.621,197.675 223.621,197.341 225.5,196.5 Z"/></g>
<g><path style="opacity:1" fill="#f8c51d" d="M 74.5,190.5 C 75.2622,194.214 75.2622,197.881 74.5,201.5C 74.9912,196.662 77.6578,194.662 82.5,195.5C 82.683,197.936 82.0163,200.103 80.5,202C 80.8333,202.167 81.1667,202.333 81.5,202.5C 87.6421,198.536 94.3087,196.202 101.5,195.5C 101.5,194.167 101.5,192.833 101.5,191.5C 104.462,192.061 107.295,193.061 110,194.5C 111.138,194.011 112.305,193.678 113.5,193.5C 99.6614,202.589 85.3281,210.923 70.5,218.5C 69.1667,218.5 67.8333,218.5 66.5,218.5C 67.1667,213.5 67.8333,208.5 68.5,203.5C 70.4479,199.195 72.4479,194.862 74.5,190.5 Z"/></g>
<g><path style="opacity:1" fill="#237dbd" d="M 294.5,201.5 C 317.268,206 337.934,215 356.5,228.5C 355.829,229.946 354.662,230.612 353,230.5C 334.073,229.252 315.24,229.252 296.5,230.5C 295.808,229.975 295.308,229.308 295,228.5C 294.5,219.506 294.334,210.506 294.5,201.5 Z"/></g>
<g><path style="opacity:1" fill="#1b7239" d="M 472.5,288.5 C 472.5,289.167 472.5,289.833 472.5,290.5C 468.403,293.313 464.403,293.147 460.5,290C 458.005,289.843 455.672,289.676 453.5,289.5C 453.167,288.167 452.833,286.833 452.5,285.5C 456.972,260.42 456.305,235.42 450.5,210.5C 451.905,207.96 451.572,205.793 449.5,204C 450.609,202.187 449.942,201.354 447.5,201.5C 447.298,199.05 447.631,196.717 448.5,194.5C 453.907,194.324 459.24,193.657 464.5,192.5C 466.78,195.146 467.113,198.146 465.5,201.5C 469.223,207.248 471.389,213.581 472,220.5C 472.814,228.413 472.647,236.246 471.5,244C 472.126,244.75 472.626,245.584 473,246.5C 473.333,246.167 473.667,245.833 474,245.5C 474.011,259.842 473.511,274.175 472.5,288.5 Z"/></g>
<g><path style="opacity:0.999" fill="#1f723c" d="M -0.5,280.5 C -0.5,262.167 -0.5,243.833 -0.5,225.5C 0.682429,217.742 2.01576,209.908 3.5,202C 10.2145,204.048 17.5478,205.548 25.5,206.5C 18.8183,243.578 20.485,280.245 30.5,316.5C 30.1667,317.5 29.8333,318.5 29.5,319.5C 23.3849,321.64 17.2182,323.64 11,325.5C 10.228,325.355 9.5613,325.022 9,324.5C 5.05561,309.876 1.88894,295.209 -0.5,280.5 Z"/></g>
<g><path style="opacity:1" fill="#0e7abe" d="M 200.5,202.5 C 201.5,202.5 202.5,202.5 203.5,202.5C 203.5,211.167 203.5,219.833 203.5,228.5C 184.83,228.667 166.164,228.5 147.5,228C 150.043,226.618 152.043,224.785 153.5,222.5C 167.73,212.897 183.396,206.23 200.5,202.5 Z"/></g>
<g><path style="opacity:0.337" fill="#edd067" d="M 68.5,203.5 C 67.8333,208.5 67.1667,213.5 66.5,218.5C 67.8333,218.5 69.1667,218.5 70.5,218.5C 68.9699,220.346 66.9699,221.346 64.5,221.5C 64.9158,215.182 66.2491,209.182 68.5,203.5 Z"/></g>
<g><path style="opacity:1" fill="#f7b413" d="M 131.5,214.5 C 130.766,215.708 130.433,217.041 130.5,218.5C 128.94,218.481 127.44,218.148 126,217.5C 123.929,218.787 121.762,219.953 119.5,221C 121.155,222.444 121.822,224.278 121.5,226.5C 119.774,226.185 118.107,226.019 116.5,226C 116.966,227.299 116.966,228.799 116.5,230.5C 114.718,231.72 112.718,232.386 110.5,232.5C 110.879,235.567 109.879,236.567 107.5,235.5C 108.446,232.687 110.446,231.354 113.5,231.5C 113.719,230.325 113.386,229.325 112.5,228.5C 106.943,229.612 102.277,232.278 98.5,236.5C 97.8333,234.833 97.1667,233.167 96.5,231.5C 91.0076,235.892 84.6743,237.725 77.5,237C 74.5933,239.734 71.4266,239.901 68,237.5C 67,238.5 66,239.5 65,240.5C 64.5017,243.817 64.335,247.15 64.5,250.5C 64.1667,250.5 63.8333,250.5 63.5,250.5C 63.5,243.167 63.5,235.833 63.5,228.5C 63.8333,228.5 64.1667,228.5 64.5,228.5C 67.7864,227.869 70.7864,226.536 73.5,224.5C 74.086,224.709 74.586,225.043 75,225.5C 76.8333,224.333 78.3333,222.833 79.5,221C 81.8689,220.686 84.0356,219.852 86,218.5C 87.7259,218.946 89.2259,219.779 90.5,221C 92.1667,221.667 93.8333,221.667 95.5,221C 98.0376,218.641 97.3709,217.141 93.5,216.5C 94.1667,215.833 94.8333,215.167 95.5,214.5C 98.7573,213.764 101.924,212.764 105,211.5C 109.759,213.835 114.259,213.168 118.5,209.5C 121.967,210.998 125.634,211.998 129.5,212.5C 129.855,213.522 130.522,214.189 131.5,214.5 Z"/></g>
<g><path style="opacity:0.466" fill="#377cab" d="M 200.5,202.5 C 202.42,201.06 204.087,201.393 205.5,203.5C 204.179,211.697 204.179,219.863 205.5,228C 204.667,228.833 203.833,229.667 203,230.5C 184.316,229.167 165.649,229.167 147,230.5C 144.868,230.323 143.868,229.323 144,227.5C 146.826,225.171 149.992,223.504 153.5,222.5C 152.043,224.785 150.043,226.618 147.5,228C 166.164,228.5 184.83,228.667 203.5,228.5C 203.5,219.833 203.5,211.167 203.5,202.5C 202.5,202.5 201.5,202.5 200.5,202.5 Z"/></g>
<g><path style="opacity:1" fill="#f5a915" d="M 107.5,235.5 C 106.862,237.573 105.862,239.573 104.5,241.5C 103.349,242.731 102.183,242.731 101,241.5C 100.457,243.631 99.6236,245.631 98.5,247.5C 97.5224,247.023 96.6891,246.357 96,245.5C 95.6667,247.5 95.3333,249.5 95,251.5C 92.7951,252.412 90.9618,253.745 89.5,255.5C 88.628,251.816 86.4614,250.816 83,252.5C 82.5172,253.448 82.3505,254.448 82.5,255.5C 76.0416,254.3 70.2083,255.633 65,259.5C 64.502,256.518 64.3354,253.518 64.5,250.5C 64.335,247.15 64.5017,243.817 65,240.5C 66,239.5 67,238.5 68,237.5C 71.4266,239.901 74.5933,239.734 77.5,237C 84.6743,237.725 91.0076,235.892 96.5,231.5C 97.1667,233.167 97.8333,234.833 98.5,236.5C 102.277,232.278 106.943,229.612 112.5,228.5C 113.386,229.325 113.719,230.325 113.5,231.5C 110.446,231.354 108.446,232.687 107.5,235.5 Z"/></g>
<g><path style="opacity:0.078" fill="#519ac3" d="M 204.5,242.5 C 184.021,240.17 163.354,239.836 142.5,241.5C 142.611,240.883 142.944,240.383 143.5,240C 163.842,239.167 184.175,239.334 204.5,240.5C 205.55,241.429 205.55,242.095 204.5,242.5 Z"/></g>
<g><path style="opacity:0.993" fill="#36774e" d="M 472.5,288.5 C 473.511,274.175 474.011,259.842 474,245.5C 473.667,245.833 473.333,246.167 473,246.5C 472.626,245.584 472.126,244.75 471.5,244C 472.647,236.246 472.814,228.413 472,220.5C 471.389,213.581 469.223,207.248 465.5,201.5C 467.113,198.146 466.78,195.146 464.5,192.5C 459.24,193.657 453.907,194.324 448.5,194.5C 453.213,192.434 458.046,190.434 463,188.5C 464.268,188.616 465.602,188.949 467,189.5C 476.021,222.246 477.854,255.246 472.5,288.5 Z"/></g>
<g><path style="opacity:1" fill="#2881bb" d="M 280.5,284.5 C 260.326,284.83 240.326,284.497 220.5,283.5C 220.167,283.5 219.833,283.5 219.5,283.5C 219.5,268.833 219.5,254.167 219.5,239.5C 239.844,239.167 260.178,239.5 280.5,240.5C 281.824,255.294 281.824,269.961 280.5,284.5 Z M 241.5,255.5 C 241.483,257.028 240.816,257.528 239.5,257C 240.044,256.283 240.711,255.783 241.5,255.5 Z M 239.5,258.5 C 240.622,260.288 240.789,262.288 240,264.5C 238.559,262.695 238.392,260.695 239.5,258.5 Z M 241.5,268.5 C 241.167,268.5 240.833,268.5 240.5,268.5C 239.537,267.637 239.537,266.97 240.5,266.5C 241.298,266.957 241.631,267.624 241.5,268.5 Z M 241.5,268.5 C 242.5,268.833 243.167,269.5 243.5,270.5C 242.167,270.5 241.5,269.833 241.5,268.5 Z M 244.5,271.5 C 247.221,271.963 249.888,272.629 252.5,273.5C 251.791,274.404 250.791,274.737 249.5,274.5C 247.739,273.687 246.072,272.687 244.5,271.5 Z M 252.5,273.5 C 253.799,271.901 255.465,271.401 257.5,272C 256.095,273.269 254.429,273.769 252.5,273.5 Z"/></g>
<g><path style="opacity:1" fill="#037ac0" d="M 240.5,268.5 C 240.833,268.5 241.167,268.5 241.5,268.5C 241.5,269.833 242.167,270.5 243.5,270.5C 243.5,271.167 243.833,271.5 244.5,271.5C 246.072,272.687 247.739,273.687 249.5,274.5C 254.2,280.163 257.867,279.496 260.5,272.5C 260.255,270.337 259.255,268.67 257.5,267.5C 253.352,270.953 249.019,271.286 244.5,268.5C 241.727,263.259 242.06,258.259 245.5,253.5C 248.247,253.187 250.914,253.52 253.5,254.5C 252.167,255.62 251.667,256.953 252,258.5C 254.627,257.217 257.127,255.717 259.5,254C 271.75,252.762 272.083,251.762 260.5,251C 260.056,249.467 259.723,247.967 259.5,246.5C 264.32,246.081 269.154,244.748 274,242.5C 275.416,243.573 276.75,243.573 278,242.5C 279.053,256.301 278.553,269.968 276.5,283.5C 269.123,282.704 261.79,282.704 254.5,283.5C 251.154,281.638 247.82,281.471 244.5,283C 236.507,283.5 228.507,283.666 220.5,283.5C 221.247,271.858 221.747,260.192 222,248.5C 228.744,247.521 235.578,247.188 242.5,247.5C 242.5,246.167 242.5,244.833 242.5,243.5C 236.158,243.666 229.825,243.5 223.5,243C 226.478,241.875 229.645,241.375 233,241.5C 238.858,241.706 244.692,242.206 250.5,243C 245.463,244.354 245.463,246.021 250.5,248C 247.086,248.297 243.753,248.964 240.5,250C 238.917,254.372 237.584,258.872 236.5,263.5C 235.774,266.958 237.107,268.625 240.5,268.5 Z M 241.5,255.5 C 240.711,255.783 240.044,256.283 239.5,257C 240.816,257.528 241.483,257.028 241.5,255.5 Z M 239.5,258.5 C 238.392,260.695 238.559,262.695 240,264.5C 240.789,262.288 240.622,260.288 239.5,258.5 Z M 241.5,268.5 C 241.167,268.5 240.833,268.5 240.5,268.5C 239.537,267.637 239.537,266.97 240.5,266.5C 241.298,266.957 241.631,267.624 241.5,268.5 Z M 241.5,268.5 C 242.5,268.833 243.167,269.5 243.5,270.5C 242.167,270.5 241.5,269.833 241.5,268.5 Z M 244.5,271.5 C 247.221,271.963 249.888,272.629 252.5,273.5C 251.791,274.404 250.791,274.737 249.5,274.5C 247.739,273.687 246.072,272.687 244.5,271.5 Z M 252.5,273.5 C 254.429,273.769 256.095,273.269 257.5,272C 255.465,271.401 253.799,271.901 252.5,273.5 Z"/></g>
<g><path style="opacity:0.706" fill="#e9b661" d="M 63.5,228.5 C 63.5,235.833 63.5,243.167 63.5,250.5C 62.9085,263.025 64.0751,275.359 67,287.5C 67.3076,288.308 67.8076,288.975 68.5,289.5C 69.684,287.954 70.684,286.287 71.5,284.5C 72.4168,283.873 73.4168,283.539 74.5,283.5C 72.2363,287.628 70.5696,291.961 69.5,296.5C 66.3551,295.923 64.8551,293.923 65,290.5C 61.1605,269.752 60.6605,249.086 63.5,228.5 Z"/></g>
<g><path style="opacity:1" fill="#eaad45" d="M 116.5,230.5 C 116.5,231.167 116.833,231.5 117.5,231.5C 105.111,242.321 94.1108,254.321 84.5,267.5C 84.7224,263.762 85.8891,260.429 88,257.5C 88.3333,257.833 88.6667,258.167 89,258.5C 88.8915,257.231 89.0582,256.231 89.5,255.5C 90.9618,253.745 92.7951,252.412 95,251.5C 95.3333,249.5 95.6667,247.5 96,245.5C 96.6891,246.357 97.5224,247.023 98.5,247.5C 99.6236,245.631 100.457,243.631 101,241.5C 102.183,242.731 103.349,242.731 104.5,241.5C 105.862,239.573 106.862,237.573 107.5,235.5C 109.879,236.567 110.879,235.567 110.5,232.5C 112.718,232.386 114.718,231.72 116.5,230.5 Z"/></g>
<g><path style="opacity:0.988" fill="#4692be" d="M 295.5,240.5 C 315.663,239.337 335.996,239.171 356.5,240C 357.159,247.424 357.492,254.924 357.5,262.5C 357.492,270.076 357.159,277.576 356.5,285C 335.996,285.829 315.663,285.663 295.5,284.5C 315.147,283.576 334.813,283.243 354.5,283.5C 354.5,269.167 354.5,254.833 354.5,240.5C 334.833,240.5 315.167,240.5 295.5,240.5 Z"/></g>
<g><path style="opacity:0.762" fill="#e4aa58" d="M 431.5,202.5 C 440.183,233.657 440.683,264.99 433,296.5C 430.489,294.778 428.989,292.445 428.5,289.5C 429.735,289.721 430.735,290.388 431.5,291.5C 432.167,290.167 432.833,288.833 433.5,287.5C 435.293,275.568 436.293,263.568 436.5,251.5C 435.731,235.039 434.065,218.705 431.5,202.5 Z"/></g>
<g><path style="opacity:1" fill="#067ac0" d="M 204.5,242.5 C 204.833,243.167 205.167,243.833 205.5,244.5C 203.763,247.008 202.93,250.008 203,253.5C 202.5,263.494 202.334,273.494 202.5,283.5C 183.156,283.621 163.823,283.288 144.5,282.5C 144.667,270.162 144.5,257.829 144,245.5C 143.617,246.056 143.117,246.389 142.5,246.5C 142.5,244.833 142.5,243.167 142.5,241.5C 163.354,239.836 184.021,240.17 204.5,242.5 Z"/></g>
<g><path style="opacity:1" fill="#217dbf" d="M 370.5,240.5 C 371.552,240.351 372.552,240.517 373.5,241C 387.829,253.84 400.162,268.34 410.5,284.5C 397.271,285.822 384.104,285.822 371,284.5C 371.011,269.895 370.844,255.228 370.5,240.5 Z"/></g>
<g><path style="opacity:1" fill="#e5a950" d="M 391.5,239.5 C 393.805,240.787 396.138,242.12 398.5,243.5C 402.157,247.459 405.824,251.459 409.5,255.5C 409.698,258.785 411.365,260.452 414.5,260.5C 418.846,269.174 423.179,277.84 427.5,286.5C 417.447,269.434 405.447,253.767 391.5,239.5 Z"/></g>
<g><path style="opacity:1" fill="#f19c1f" d="M 63.5,250.5 C 63.8333,250.5 64.1667,250.5 64.5,250.5C 64.3354,253.518 64.502,256.518 65,259.5C 70.2083,255.633 76.0416,254.3 82.5,255.5C 82.3505,254.448 82.5172,253.448 83,252.5C 86.4614,250.816 88.628,251.816 89.5,255.5C 89.0582,256.231 88.8915,257.231 89,258.5C 88.6667,258.167 88.3333,257.833 88,257.5C 85.8891,260.429 84.7224,263.762 84.5,267.5C 81.6641,273.178 78.3308,278.511 74.5,283.5C 73.4168,283.539 72.4168,283.873 71.5,284.5C 70.684,286.287 69.684,287.954 68.5,289.5C 67.8076,288.975 67.3076,288.308 67,287.5C 64.0751,275.359 62.9085,263.025 63.5,250.5 Z"/></g>
<g><path style="opacity:1" fill="#4c8cba" d="M 107.5,261.5 C 113.543,252.79 120.876,245.457 129.5,239.5C 129.667,254.504 129.5,269.504 129,284.5C 122.577,285.157 116.077,285.491 109.5,285.5C 102.67,285.65 96.0038,285.15 89.5,284C 94.6582,275.691 100.658,268.191 107.5,261.5 Z"/></g>
<g><path style="opacity:1" fill="#027ac1" d="M 107.5,261.5 C 113.176,255.991 119.009,250.657 125,245.5C 126.46,257.733 126.96,270.066 126.5,282.5C 115.484,283.28 104.484,283.28 93.5,282.5C 94.0347,279.018 96.0347,277.351 99.5,277.5C 99.2865,275.856 99.6198,274.356 100.5,273C 102.225,273.409 103.892,273.242 105.5,272.5C 104.689,271.784 104.022,270.95 103.5,270C 105.241,267.352 106.574,264.519 107.5,261.5 Z"/></g>
<g><path style="opacity:1" fill="#187cc0" d="M 295.5,240.5 C 315.167,240.5 334.833,240.5 354.5,240.5C 354.5,254.833 354.5,269.167 354.5,283.5C 334.813,283.243 315.147,283.576 295.5,284.5C 294.167,269.833 294.167,255.167 295.5,240.5 Z M 332.5,251.5 C 332.17,257.481 332.17,263.314 332.5,269C 332.167,270.5 331.833,272 331.5,273.5C 330.509,269.555 330.176,265.555 330.5,261.5C 326.167,261.5 321.833,261.5 317.5,261.5C 317.5,261.167 317.5,260.833 317.5,260.5C 321.833,260.5 326.167,260.5 330.5,260.5C 329.945,256.988 330.612,253.988 332.5,251.5 Z"/></g>
<g><path style="opacity:0.043" fill="#78adce" d="M 332.5,251.5 C 330.612,253.988 329.945,256.988 330.5,260.5C 326.167,260.5 321.833,260.5 317.5,260.5C 317.5,260.833 317.5,261.167 317.5,261.5C 316.517,265.298 316.183,269.298 316.5,273.5C 315.508,266.018 315.175,258.352 315.5,250.5C 316.5,250.5 317.5,250.5 318.5,250.5C 318.5,253.5 318.5,256.5 318.5,259.5C 322.167,259.5 325.833,259.5 329.5,259.5C 329.5,256.5 329.5,253.5 329.5,250.5C 330.791,250.263 331.791,250.596 332.5,251.5 Z"/></g>
<g><path style="opacity:1" fill="#367b4a" d="M 448.5,194.5 C 447.631,196.717 447.298,199.05 447.5,201.5C 449.942,201.354 450.609,202.187 449.5,204C 451.572,205.793 451.905,207.96 450.5,210.5C 456.305,235.42 456.972,260.42 452.5,285.5C 452.833,286.833 453.167,288.167 453.5,289.5C 455.672,289.676 458.005,289.843 460.5,290C 464.403,293.147 468.403,293.313 472.5,290.5C 472.767,292.971 471.767,294.638 469.5,295.5C 465.612,294.57 461.779,293.57 458,292.5C 457.586,292.957 457.086,293.291 456.5,293.5C 454.358,292.399 452.192,291.399 450,290.5C 450.644,285.225 451.311,279.892 452,274.5C 452.667,259.833 452.667,245.167 452,230.5C 449.934,218.436 447.768,206.436 445.5,194.5C 446.5,194.5 447.5,194.5 448.5,194.5 Z"/></g>
<g><path style="opacity:1" fill="#36794a" d="M 47.5,212.5 C 49.5273,212.338 51.5273,212.505 53.5,213C 54.6241,213.839 55.2908,215.006 55.5,216.5C 54.1371,222.096 53.1371,227.762 52.5,233.5C 52.3997,246.344 52.5664,259.344 53,272.5C 54.414,285.193 56.914,297.36 60.5,309C 54.0635,311.778 47.3968,313.945 40.5,315.5C 37.4411,315.333 36.4411,313.999 37.5,311.5C 30.367,286.558 27.867,260.891 30,234.5C 30.1749,228.389 31.0082,222.389 32.5,216.5C 31.4956,213.175 32.6623,210.841 36,209.5C 40.0712,210.074 43.9045,211.074 47.5,212.5 Z"/></g>
<g><path style="opacity:1" fill="#1b7239" d="M 47.5,212.5 C 48.5521,214.256 50.2188,214.923 52.5,214.5C 51.0069,237.419 50.0069,260.419 49.5,283.5C 51.4261,288.574 53.7594,293.574 56.5,298.5C 55.7565,301.443 55.2565,304.443 55,307.5C 52.8995,308.924 50.7328,310.258 48.5,311.5C 46.8767,310.524 45.5433,311.024 44.5,313C 42.5273,313.495 40.5273,313.662 38.5,313.5C 37.3888,300.341 35.2222,287.341 32,274.5C 31.1671,257.49 31.3337,240.49 32.5,223.5C 34.0546,219.507 35.0546,215.34 35.5,211C 39.3782,211.792 43.3782,212.292 47.5,212.5 Z"/></g>
<g><path style="opacity:0.916" fill="#498cba" d="M 205.5,244.5 C 204.52,258.13 204.186,271.63 204.5,285C 184.167,285.667 163.833,285.667 143.5,285C 142.511,272.246 142.178,259.413 142.5,246.5C 143.117,246.389 143.617,246.056 144,245.5C 144.5,257.829 144.667,270.162 144.5,282.5C 163.823,283.288 183.156,283.621 202.5,283.5C 202.334,273.494 202.5,263.494 203,253.5C 202.93,250.008 203.763,247.008 205.5,244.5 Z"/></g>
<g><path style="opacity:0.024" fill="#60add5" d="M 219.5,283.5 C 219.833,283.5 220.167,283.5 220.5,283.5C 240.326,284.497 260.326,284.83 280.5,284.5C 260.337,285.663 240.004,285.829 219.5,285C 218.262,284.31 218.262,283.81 219.5,283.5 Z"/></g>
<g><path style="opacity:1" fill="#197cbf" d="M 89.5,333.5 C 86.8806,333.768 84.3806,333.435 82,332.5C 78.3333,326.666 76.1666,320.333 75.5,313.5C 77.8585,307.459 80.1918,301.459 82.5,295.5C 98.0779,295.176 113.578,295.509 129,296.5C 129.819,306.744 129.652,316.91 128.5,327C 115.286,328.006 102.286,330.173 89.5,333.5 Z"/></g>
<g><path style="opacity:1" fill="#037abf" d="M 353.5,295.5 C 355.099,295.232 356.432,295.566 357.5,296.5C 355.526,306.111 354.859,316.111 355.5,326.5C 349.161,325.999 342.994,326.665 337,328.5C 332.935,327.546 332.435,325.546 335.5,322.5C 336.812,315.276 336.812,308.109 335.5,301C 332.891,298.903 330.558,299.236 328.5,302C 329,302.5 329.5,303 330,303.5C 330.667,307.5 330.667,311.5 330,315.5C 329.184,314.177 328.017,313.511 326.5,313.5C 324.5,312.167 322.833,310.5 321.5,308.5C 321.66,306.801 321.494,305.134 321,303.5C 318.411,302.663 316.578,300.997 315.5,298.5C 327.82,297.667 340.153,297.167 352.5,297C 353.056,296.617 353.389,296.117 353.5,295.5 Z"/></g>
<g><path style="opacity:1" fill="#0a7abf" d="M 417.5,297.5 C 421.78,304.373 424.613,311.707 426,319.5C 423.884,325.186 421.384,330.686 418.5,336C 414.489,335.161 410.489,333.994 406.5,332.5C 403.999,329.389 400.666,327.723 396.5,327.5C 388.528,326.502 380.528,326.169 372.5,326.5C 372.5,316.5 372.5,306.5 372.5,296.5C 387.578,296.184 402.578,296.517 417.5,297.5 Z"/></g>
<g><path style="opacity:1" fill="#24743f" d="M 446.5,299.5 C 454.232,300.017 461.899,301.017 469.5,302.5C 461.579,339.012 445.246,371.012 420.5,398.5C 415.581,395.088 411.081,391.088 407,386.5C 406.667,386.833 406.333,387.167 406,387.5C 405.219,386.271 404.719,384.938 404.5,383.5C 418.673,366.491 430.173,347.824 439,327.5C 442.214,318.359 444.714,309.025 446.5,299.5 Z"/></g>
<g><path style="opacity:0.525" fill="#498ab7" d="M 417.5,297.5 C 402.578,296.517 387.578,296.184 372.5,296.5C 372.5,306.5 372.5,316.5 372.5,326.5C 380.528,326.169 388.528,326.502 396.5,327.5C 400.666,327.723 403.999,329.389 406.5,332.5C 394.735,329.9 382.901,327.9 371,326.5C 371.095,316.055 370.928,305.722 370.5,295.5C 386.536,294.849 402.202,295.516 417.5,297.5 Z"/></g>
<g><path style="opacity:1" fill="#3c85ba" d="M 353.5,295.5 C 353.389,296.117 353.056,296.617 352.5,297C 340.153,297.167 327.82,297.667 315.5,298.5C 316.578,300.997 318.411,302.663 321,303.5C 321.494,305.134 321.66,306.801 321.5,308.5C 319.895,307.031 319.395,307.365 320,309.5C 323,312.5 326,315.5 329,318.5C 328.942,316.565 328.109,314.898 326.5,313.5C 328.017,313.511 329.184,314.177 330,315.5C 330.667,311.5 330.667,307.5 330,303.5C 329.5,303 329,302.5 328.5,302C 330.558,299.236 332.891,298.903 335.5,301C 336.812,308.109 336.812,315.276 335.5,322.5C 332.435,325.546 332.935,327.546 337,328.5C 342.994,326.665 349.161,325.999 355.5,326.5C 354.859,316.111 355.526,306.111 357.5,296.5C 357.819,306.749 357.486,316.916 356.5,327C 339.226,329.185 322.559,333.519 306.5,340C 302.833,340.667 299.167,340.667 295.5,340C 294.167,325.333 294.167,310.667 295.5,296C 314.83,295.5 334.164,295.333 353.5,295.5 Z M 321.5,308.5 C 322.833,310.5 324.5,312.167 326.5,313.5C 328.109,314.898 328.942,316.565 329,318.5C 326,315.5 323,312.5 320,309.5C 319.395,307.365 319.895,307.031 321.5,308.5 Z M 317.5,305.5 C 318.757,306.623 318.424,307.289 316.5,307.5C 316.833,306.833 317.167,306.167 317.5,305.5 Z M 333.5,321.5 C 333.565,321.938 333.399,322.272 333,322.5C 330.988,321.434 330.488,320.1 331.5,318.5C 332.326,314.018 332.826,309.351 333,304.5C 333.499,310.157 333.666,315.824 333.5,321.5 Z M 316.5,304.5 C 315.167,305.5 315.167,306.5 316.5,307.5C 316.828,312.875 316.495,318.208 315.5,323.5C 314.336,316.524 314.169,309.524 315,302.5C 315.717,303.044 316.217,303.711 316.5,304.5 Z"/></g>
<g><path style="opacity:0.067" fill="#7cbeda" d="M 333.5,321.5 C 333.666,315.824 333.499,310.157 333,304.5C 332.826,309.351 332.326,314.018 331.5,318.5C 331.5,312.833 331.5,307.167 331.5,301.5C 332.5,301.5 333.5,301.5 334.5,301.5C 334.824,308.354 334.491,315.021 333.5,321.5 Z"/></g>
<g><path style="opacity:0.004" fill="#70fffe" d="M 316.5,304.5 C 316.5,305.167 316.833,305.5 317.5,305.5C 317.167,306.167 316.833,306.833 316.5,307.5C 315.167,306.5 315.167,305.5 316.5,304.5 Z"/></g>
<g><path style="opacity:1" fill="#017ac0" d="M 298.5,297.5 C 300.143,297.48 301.476,298.147 302.5,299.5C 305.406,297.021 308.406,296.854 311.5,299C 308.882,300.974 309.048,302.807 312,304.5C 312.211,311.551 312.878,318.551 314,325.5C 315.356,326.38 316.856,326.714 318.5,326.5C 318.334,322.154 318.501,317.821 319,313.5C 319.251,315.433 319.751,317.266 320.5,319C 320.043,319.414 319.709,319.914 319.5,320.5C 320.991,321.244 322.491,321.91 324,322.5C 325.33,325.231 325.83,327.898 325.5,330.5C 322.893,331.318 320.226,331.818 317.5,332C 314.923,334.51 311.923,334.677 308.5,332.5C 306.889,333.32 306.222,334.654 306.5,336.5C 304.94,336.481 303.44,336.148 302,335.5C 301.5,335.833 301,336.167 300.5,336.5C 301.5,337.167 302.5,337.833 303.5,338.5C 301.257,339.474 298.924,339.808 296.5,339.5C 295.878,325.255 296.545,311.255 298.5,297.5 Z"/></g>
<g><path style="opacity:0.999" fill="#2880b8" d="M 203.5,294.5 C 204.234,295.878 204.901,297.378 205.5,299C 204.571,312.922 204.237,326.755 204.5,340.5C 200.818,340.665 197.152,340.499 193.5,340C 177.391,333.512 160.725,329.178 143.5,327C 142.513,316.582 142.18,306.082 142.5,295.5C 163.007,295.83 183.34,295.497 203.5,294.5 Z M 167.5,309.5 C 167.577,310.75 168.244,311.583 169.5,312C 167.714,314.124 167.381,316.624 168.5,319.5C 168.415,321.333 167.748,322.666 166.5,323.5C 166.181,318.637 166.514,313.97 167.5,309.5 Z"/></g>
<g><path style="opacity:1" fill="#027ac0" d="M 178.5,314.5 C 177.203,310.999 177.203,307.499 178.5,304C 177.255,303.209 175.922,302.709 174.5,302.5C 173.833,302.5 173.167,302.5 172.5,302.5C 169.555,298.86 166.221,298.693 162.5,302C 163.357,302.689 164.023,303.522 164.5,304.5C 157.951,306.093 157.951,307.093 164.5,307.5C 164.584,313.877 164.584,320.044 164.5,326C 166.701,327.043 169.034,327.877 171.5,328.5C 171.291,329.086 170.957,329.586 170.5,330C 166.462,329.532 162.462,328.532 158.5,327C 153.845,326.501 149.179,326.334 144.5,326.5C 144.5,325.5 144.5,324.5 144.5,323.5C 146.484,323.617 148.15,322.95 149.5,321.5C 148.256,318.362 147.589,315.028 147.5,311.5C 146.11,301.939 149.944,298.939 159,302.5C 159.49,301.207 159.657,299.873 159.5,298.5C 157.473,298.662 155.473,298.495 153.5,298C 157.354,297.646 161.188,297.146 165,296.5C 177.473,297.452 189.973,297.785 202.5,297.5C 202.5,311.167 202.5,324.833 202.5,338.5C 199.753,338.813 197.086,338.48 194.5,337.5C 191.942,335.283 188.942,334.117 185.5,334C 183.5,333.333 182.167,332 181.5,330C 178.918,328.667 176.251,327.5 173.5,326.5C 176.145,325.808 178.645,324.808 181,323.5C 182.252,318.685 183.752,314.018 185.5,309.5C 184.167,309.5 182.833,309.5 181.5,309.5C 181.5,311.167 181.5,312.833 181.5,314.5C 180.5,314.5 179.5,314.5 178.5,314.5 Z M 167.5,309.5 C 167.577,310.75 168.244,311.583 169.5,312C 167.714,314.124 167.381,316.624 168.5,319.5C 168.415,321.333 167.748,322.666 166.5,323.5C 166.181,318.637 166.514,313.97 167.5,309.5 Z"/></g>
<g><path style="opacity:0.098" fill="#7cb6d0" d="M 174.5,303.5 C 174.5,303.167 174.5,302.833 174.5,302.5C 175.922,302.709 177.255,303.209 178.5,304C 177.203,307.499 177.203,310.999 178.5,314.5C 178.5,314.833 178.5,315.167 178.5,315.5C 178.167,315.5 177.833,315.5 177.5,315.5C 177.5,314.833 177.167,314.5 176.5,314.5C 176.167,313.167 175.833,313.167 175.5,314.5C 174.778,314.082 174.278,313.416 174,312.5C 173.601,312.728 173.435,313.062 173.5,313.5C 172.167,313.5 170.833,313.5 169.5,313.5C 169.5,316.5 169.5,319.5 169.5,322.5C 170.5,322.5 171.5,322.5 172.5,322.5C 172.5,323.167 172.833,323.5 173.5,323.5C 171.167,324.833 168.833,324.833 166.5,323.5C 167.748,322.666 168.415,321.333 168.5,319.5C 167.381,316.624 167.714,314.124 169.5,312C 168.244,311.583 167.577,310.75 167.5,309.5C 167.833,309.5 168.167,309.5 168.5,309.5C 170.265,310.461 172.265,310.795 174.5,310.5C 175.167,310.5 175.5,310.167 175.5,309.5C 176.833,308.833 176.833,308.167 175.5,307.5C 175.5,307.167 175.5,306.833 175.5,306.5C 176.833,305.833 176.833,305.167 175.5,304.5C 175.5,303.833 175.167,303.5 174.5,303.5 Z"/></g>
<g><path style="opacity:0.973" fill="#1575b2" d="M 175.5,304.5 C 175.5,305.167 175.5,305.833 175.5,306.5C 175.5,306.833 175.5,307.167 175.5,307.5C 175.5,308.167 175.5,308.833 175.5,309.5C 174.833,309.5 174.5,309.833 174.5,310.5C 172.265,310.795 170.265,310.461 168.5,309.5C 169.451,308.081 169.784,306.415 169.5,304.5C 171.5,304.5 173.5,304.5 175.5,304.5 Z"/></g>
<g><path style="opacity:0.937" fill="#5590ba" d="M 75.5,313.5 C 76.1666,320.333 78.3333,326.666 82,332.5C 84.3806,333.435 86.8806,333.768 89.5,333.5C 87.3498,334.67 85.0164,335.67 82.5,336.5C 78.3245,330.981 75.3245,324.814 73.5,318C 73.899,316.272 74.5657,314.772 75.5,313.5 Z"/></g>
<g><path style="opacity:1" fill="#23733e" d="M 27.5,327.5 C 29.8333,327.5 32.1667,327.5 34.5,327.5C 42.643,351.786 54.4763,374.119 70,394.5C 78.0467,403.043 85.88,411.71 93.5,420.5C 90.5561,424.618 87.3894,428.618 84,432.5C 82.6106,434.227 80.9439,435.561 79,436.5C 47.843,407.842 25.343,373.509 11.5,333.5C 16.0409,332.285 20.3743,330.619 24.5,328.5C 25.9217,329.777 26.9217,329.443 27.5,327.5 Z"/></g>
<g><path style="opacity:0.382" fill="#3f8ab2" d="M 219.5,294.5 C 239.76,295.322 260.094,295.822 280.5,296C 281.491,310.755 281.824,325.588 281.5,340.5C 260.831,340.667 240.164,340.5 219.5,340C 219.468,325.042 219.468,309.875 219.5,294.5 Z"/></g>
<g><path style="opacity:1" fill="#0a7abf" d="M 221.5,296.5 C 240.833,296.5 260.167,296.5 279.5,296.5C 279.5,310.833 279.5,325.167 279.5,339.5C 259.833,339.5 240.167,339.5 220.5,339.5C 220.184,325.088 220.518,310.755 221.5,296.5 Z"/></g>
<g><path style="opacity:1" fill="#23733e" d="M 60.5,317.5 C 61.675,317.281 62.675,317.614 63.5,318.5C 73.7616,348.245 90.2616,373.912 113,395.5C 113.798,397.259 113.631,398.926 112.5,400.5C 108.665,404.503 104.998,408.669 101.5,413C 99.7412,413.798 98.0745,413.631 96.5,412.5C 71.7321,387.483 53.3988,358.317 41.5,325C 41.9054,324.055 42.572,323.388 43.5,323C 49.3732,321.43 55.0399,319.597 60.5,317.5 Z"/></g>
<g><path style="opacity:1" fill="#277fbd" d="M 219.5,350.5 C 239.836,350.333 260.169,350.5 280.5,351C 280.957,351.414 281.291,351.914 281.5,352.5C 270.222,360.664 259.889,369.997 250.5,380.5C 242.05,371.377 232.717,363.377 222.5,356.5C 220.423,355.012 219.423,353.012 219.5,350.5 Z"/></g>
<g><path style="opacity:1" fill="#1f733b" d="M 482.5,358.5 C 477.895,360.766 475.895,364.433 476.5,369.5C 475.178,369.33 474.011,369.663 473,370.5C 472.505,372.473 472.338,374.473 472.5,376.5C 471.5,376.5 470.5,376.5 469.5,376.5C 469.703,378.39 469.037,379.89 467.5,381C 467.066,384.024 465.566,386.857 463,389.5C 462.51,390.793 462.343,392.127 462.5,393.5C 461.5,393.5 460.5,393.5 459.5,393.5C 459.481,395.06 459.148,396.56 458.5,398C 456.726,400.987 454.393,403.487 451.5,405.5C 450.614,406.325 450.281,407.325 450.5,408.5C 449.167,408.5 447.833,408.5 446.5,408.5C 446.876,411.707 445.876,414.373 443.5,416.5C 442.833,416.167 442.167,415.833 441.5,415.5C 440.755,413.253 439.422,411.42 437.5,410C 434.96,408.569 432.627,406.902 430.5,405C 431.479,402.567 432.145,400.067 432.5,397.5C 454.231,370.535 469.231,340.035 477.5,306C 480.871,305.256 484.037,305.756 487,307.5C 487.333,307.167 487.667,306.833 488,306.5C 491.342,308.536 494.842,309.203 498.5,308.5C 498.833,309.167 499.167,309.833 499.5,310.5C 495.794,327.289 490.128,343.289 482.5,358.5 Z"/></g>
<g><path style="opacity:0.879" fill="#1f1f1f" d="M 200.5,377.5 C 206.608,376.722 211.274,378.889 214.5,384C 213.271,385.529 211.771,386.696 210,387.5C 207.465,384.129 204.631,383.462 201.5,385.5C 204.771,387.2 207.604,389.866 210,393.5C 213.2,401.766 210.533,407.1 202,409.5C 199,407.833 196,406.167 193,404.5C 192.178,401.883 191.678,399.216 191.5,396.5C 195.145,395.68 197.478,397.013 198.5,400.5C 201.33,403.33 203.664,402.997 205.5,399.5C 201.943,396.037 198.61,392.203 195.5,388C 196.78,385.868 196.78,383.702 195.5,381.5C 197.21,380.113 198.877,378.779 200.5,377.5 Z"/></g>
<g><path style="opacity:0.874" fill="#1e1e1e" d="M 271.5,398.5 C 272.055,394.003 271.389,389.836 269.5,386C 270.167,385.333 270.833,384.667 271.5,384C 279.942,383.044 288.276,381.544 296.5,379.5C 304.177,379.341 307.344,383.008 306,390.5C 305.028,392.305 303.861,393.972 302.5,395.5C 305.141,397.804 307.808,400.138 310.5,402.5C 311.731,403.651 311.731,404.817 310.5,406C 308.899,406.273 307.399,406.773 306,407.5C 303.032,405.041 300.698,402.707 299,400.5C 298.5,400.833 298,401.167 297.5,401.5C 298.752,403.735 299.252,406.069 299,408.5C 297.951,409.517 296.784,409.684 295.5,409C 292.724,404.826 290.558,400.326 289,395.5C 287.738,397.303 286.071,398.636 284,399.5C 282.333,398.167 280.667,398.167 279,399.5C 278.503,401.81 278.337,404.143 278.5,406.5C 282.452,405.728 286.452,405.395 290.5,405.5C 290.5,407.167 290.5,408.833 290.5,410.5C 288.54,411.138 286.707,411.138 285,410.5C 282.063,412.094 279.229,413.094 276.5,413.5C 275.522,413.023 274.689,412.357 274,411.5C 273.503,408.854 273.336,406.187 273.5,403.5C 272.325,403.281 271.325,403.614 270.5,404.5C 267.78,411.292 262.78,414.625 255.5,414.5C 252.235,413.45 249.235,412.617 246.5,412C 244.317,409.65 241.984,407.483 239.5,405.5C 240.052,403.997 240.052,402.331 239.5,400.5C 237.418,400.528 235.584,399.861 234,398.5C 232.026,398.626 229.859,398.792 227.5,399C 227.626,400.974 227.792,403.141 228,405.5C 231.076,406.288 234.242,406.788 237.5,407C 238.747,408.458 238.747,409.958 237.5,411.5C 235.659,412.23 233.825,412.897 232,413.5C 228.778,411.752 225.611,410.752 222.5,410.5C 221.738,409.372 221.071,408.205 220.5,407C 222.52,399.989 223.853,392.822 224.5,385.5C 223.369,384.396 222.535,384.729 222,386.5C 220.911,394.22 219.577,401.886 218,409.5C 215.328,410.759 213.161,410.092 211.5,407.5C 211.808,406.692 212.308,406.025 213,405.5C 213.918,398.913 215.085,392.413 216.5,386C 215.521,384.221 215.854,382.555 217.5,381C 219.983,380.83 222.149,381.664 224,383.5C 229.765,382.586 235.599,382.586 241.5,383.5C 241.343,384.873 241.51,386.207 242,387.5C 250.142,382.497 258.309,382.331 266.5,387C 268.983,389.796 268.317,391.963 264.5,393.5C 261.446,391.306 258.112,389.639 254.5,388.5C 244.435,392.84 242.769,399.007 249.5,407C 253.22,409.058 256.72,408.891 260,406.5C 260.333,406.833 260.667,407.167 261,407.5C 261.814,405.718 262.981,404.218 264.5,403C 262.5,403 260.5,403 258.5,403C 257.594,401.301 257.261,399.467 257.5,397.5C 262.263,397.226 266.93,397.559 271.5,398.5 Z M 294.5,384.5 C 297.833,383.833 299.833,385.167 300.5,388.5C 296.456,394.103 294.122,393.27 293.5,386C 294.056,385.617 294.389,385.117 294.5,384.5 Z M 287.5,386.5 C 288.234,387.878 288.901,389.378 289.5,391C 288.747,392.487 287.914,392.654 287,391.5C 283.636,392.739 280.136,393.406 276.5,393.5C 276.966,391.799 276.966,390.299 276.5,389C 280.392,388.581 284.058,387.748 287.5,386.5 Z M 233.5,388.5 C 235.584,389.248 237.584,389.248 239.5,388.5C 240.641,390.421 240.808,392.421 240,394.5C 236.504,393.797 233.004,393.13 229.5,392.5C 229.5,391.167 229.5,389.833 229.5,388.5C 230.833,388.5 232.167,388.5 233.5,388.5 Z M 271.5,398.5 C 272.782,399.708 272.782,401.042 271.5,402.5C 270.708,401.3 270.708,399.967 271.5,398.5 Z"/></g>
<g><path style="opacity:0.004" fill="#bbbbbb" d="M 233.5,388.5 C 232.167,388.5 230.833,388.5 229.5,388.5C 229.5,389.833 229.5,391.167 229.5,392.5C 228.482,391.708 228.149,390.041 228.5,387.5C 230.415,387.216 232.081,387.549 233.5,388.5 Z"/></g>
<g><path style="opacity:1" fill="#22733d" d="M 384.5,431.5 C 382.833,431.5 381.167,431.5 379.5,431.5C 379.5,432.5 379.5,433.5 379.5,434.5C 374.244,437.388 368.911,440.221 363.5,443C 359.349,445.385 355.683,448.219 352.5,451.5C 343.831,455.782 334.998,459.782 326,463.5C 323.444,459.534 321.444,455.201 320,450.5C 319.548,447.851 318.714,445.351 317.5,443C 319.047,441.151 320.881,439.651 323,438.5C 323.333,438.833 323.667,439.167 324,439.5C 351.913,428.463 376.413,412.297 397.5,391C 398.908,390.685 400.241,391.018 401.5,392C 405.9,396.4 410.233,400.733 414.5,405C 405.933,415.451 395.933,424.284 384.5,431.5 Z"/></g>
<g><path style="opacity:0.542" fill="#181819" d="M 341.5,399.5 C 347.04,399.528 348.707,402.028 346.5,407C 352.126,407.736 353.959,410.902 352,416.5C 351.167,417.333 350.333,418.167 349.5,419C 346.167,419.667 342.833,419.667 339.5,419C 338.273,417.413 338.606,416.079 340.5,415C 338.208,413.71 336.208,412.043 334.5,410C 334.346,407.437 334.846,404.937 336,402.5C 337.876,401.391 339.709,400.391 341.5,399.5 Z M 346.5,413.5 C 344.846,416.137 344.346,415.803 345,412.5C 345.383,413.056 345.883,413.389 346.5,413.5 Z"/></g>
<g><path style="opacity:0.633" fill="#1c1d1c" d="M 328.5,405.5 C 330.59,405.45 331.923,406.45 332.5,408.5C 331.68,410.111 330.346,410.778 328.5,410.5C 328.343,411.873 328.51,413.207 329,414.5C 331.786,412.816 333.62,413.483 334.5,416.5C 333.772,418.868 332.438,419.534 330.5,418.5C 329.3,420.107 329.8,421.107 332,421.5C 337.543,418.42 339.376,419.587 337.5,425C 334.025,425.118 331.025,426.285 328.5,428.5C 327.558,428.392 326.725,428.059 326,427.5C 325.667,425.5 325.333,423.5 325,421.5C 323.984,422.634 323.317,422.301 323,420.5C 322.367,416.591 321.201,412.925 319.5,409.5C 322.943,408.941 325.943,407.607 328.5,405.5 Z"/></g>
<g><path style="opacity:1" fill="#407b55" d="M 482.5,358.5 C 472.762,380.47 460.095,400.637 444.5,419C 443.5,419.667 442.5,419.667 441.5,419C 437.101,413.968 432.101,409.635 426.5,406C 426.883,402.384 428.883,399.551 432.5,397.5C 432.145,400.067 431.479,402.567 430.5,405C 432.627,406.902 434.96,408.569 437.5,410C 439.422,411.42 440.755,413.253 441.5,415.5C 442.167,415.833 442.833,416.167 443.5,416.5C 445.876,414.373 446.876,411.707 446.5,408.5C 447.833,408.5 449.167,408.5 450.5,408.5C 450.281,407.325 450.614,406.325 451.5,405.5C 454.393,403.487 456.726,400.987 458.5,398C 459.148,396.56 459.481,395.06 459.5,393.5C 460.5,393.5 461.5,393.5 462.5,393.5C 462.343,392.127 462.51,390.793 463,389.5C 465.566,386.857 467.066,384.024 467.5,381C 469.037,379.89 469.703,378.39 469.5,376.5C 470.5,376.5 471.5,376.5 472.5,376.5C 472.338,374.473 472.505,372.473 473,370.5C 474.011,369.663 475.178,369.33 476.5,369.5C 475.895,364.433 477.895,360.766 482.5,358.5 Z"/></g>
<g><path style="opacity:0.895" fill="#1c1c1c" d="M 153.5,392.5 C 155.903,392.393 157.736,393.393 159,395.5C 159.333,395.167 159.667,394.833 160,394.5C 165.25,398.879 171.083,402.379 177.5,405C 178.187,407.232 178.521,409.398 178.5,411.5C 179.192,410.975 179.692,410.308 180,409.5C 183.301,409.499 186.801,409.666 190.5,410C 194.19,412.169 195.857,415.336 195.5,419.5C 193.712,419.785 192.045,419.452 190.5,418.5C 188.243,414.185 185.243,413.518 181.5,416.5C 179.711,423.209 181.878,425.542 188,423.5C 189.609,424.147 191.109,424.98 192.5,426C 191.167,426.667 191.167,427.333 192.5,428C 183.434,431.795 177.434,429.129 174.5,420C 177.062,416.353 177.062,412.853 174.5,409.5C 173.779,411.686 173.113,413.853 172.5,416C 170.251,416.863 168.418,416.363 167,414.5C 166.5,415 166,415.5 165.5,416C 166.653,417.883 168.319,418.716 170.5,418.5C 170.845,421.488 169.512,422.821 166.5,422.5C 165.006,422.291 163.839,421.624 163,420.5C 162.667,420.833 162.333,421.167 162,421.5C 161.167,420 160,418.833 158.5,418C 162.343,413.557 164.177,408.724 164,403.5C 162.667,402.833 161.333,402.167 160,401.5C 157.469,405.354 154.969,409.187 152.5,413C 150.837,413.265 149.337,412.765 148,411.5C 149.961,407.417 152.128,403.25 154.5,399C 151.143,397.166 150.81,395 153.5,392.5 Z"/></g>
<g><path style="opacity:0.711" fill="#1f1f1f" d="M 320.5,420.5 C 321.785,423.715 322.452,427.381 322.5,431.5C 321.178,431.33 320.011,431.663 319,432.5C 317.13,428.854 315.63,425.021 314.5,421C 314.164,419.97 313.497,419.47 312.5,419.5C 312.723,417.246 313.056,414.912 313.5,412.5C 314.736,411.754 316.07,411.421 317.5,411.5C 317.747,414.854 318.747,417.854 320.5,420.5 Z"/></g>
<g><path style="opacity:0.811" fill="#1d1d1d" d="M 203.5,420.5 C 202.115,421.947 202.448,422.947 204.5,423.5C 206.112,424.452 207.612,424.786 209,424.5C 208.775,421.154 210.108,418.82 213,417.5C 214.434,417.93 215.601,418.764 216.5,420C 214.849,425.825 212.849,431.825 210.5,438C 208.339,438.722 206.672,438.055 205.5,436C 207.113,433.772 207.78,431.272 207.5,428.5C 205.738,428.643 204.071,428.309 202.5,427.5C 201.376,429.369 200.543,431.369 200,433.5C 196.907,435.972 195.407,434.972 195.5,430.5C 197.075,425.276 198.742,420.11 200.5,415C 204.463,414.882 205.463,416.716 203.5,420.5 Z"/></g>
<g><path style="opacity:0.669" fill="#1e1e1e" d="M 312.5,419.5 C 312.407,423.361 312.241,427.361 312,431.5C 311.283,432.044 310.783,432.711 310.5,433.5C 306.817,435.481 302.817,435.981 298.5,435C 297.747,433.513 296.914,433.346 296,434.5C 293.667,432.288 292.834,429.788 293.5,427C 292.906,426.536 292.239,426.369 291.5,426.5C 294.06,416.689 300.06,413.689 309.5,417.5C 310.086,417.291 310.586,416.957 311,416.5C 311.232,417.737 311.732,418.737 312.5,419.5 Z M 300.5,425.5 C 299.233,426.087 298.233,426.087 297.5,425.5C 299.181,422.945 301.014,421.279 303,420.5C 303.833,421.333 304.667,422.167 305.5,423C 303.685,423.757 302.019,424.59 300.5,425.5 Z M 306.5,428.5 C 305.548,429.452 304.548,430.452 303.5,431.5C 302.614,430.675 302.281,429.675 302.5,428.5C 303.833,428.5 305.167,428.5 306.5,428.5 Z"/></g>
<g><path style="opacity:0.004" fill="#000000" d="M 320.5,419.5 C 321.833,420.167 321.833,420.167 320.5,419.5 Z"/></g>
<g><path style="opacity:1" fill="#23743e" d="M 337.5,492.5 C 337.167,492.5 336.833,492.5 336.5,492.5C 335.5,491.167 334.5,491.167 333.5,492.5C 333.167,492.5 332.833,492.5 332.5,492.5C 331.442,485.706 329.776,479.039 327.5,472.5C 327.833,471.833 328.167,471.167 328.5,470.5C 339.436,466.412 350.103,461.745 360.5,456.5C 379.868,446.121 397.535,433.454 413.5,418.5C 416.188,415.646 418.688,412.646 421,409.5C 426.317,414.483 431.651,419.483 437,424.5C 437.667,425.167 437.667,425.833 437,426.5C 418.465,445.71 397.632,461.877 374.5,475C 362.026,480.968 349.692,486.801 337.5,492.5 Z"/></g>
<g><path style="opacity:0.008" fill="#d5d5d5" d="M 203.5,420.5 C 203.557,421.609 203.89,422.609 204.5,423.5C 202.448,422.947 202.115,421.947 203.5,420.5 Z"/></g>
<g><path style="opacity:0.822" fill="#222222" d="M 240.5,422.5 C 244.182,422.335 247.848,422.501 251.5,423C 258.156,428.953 258.156,434.953 251.5,441C 245.86,443.309 241.193,442.143 237.5,437.5C 236.34,433.541 236.173,429.541 237,425.5C 238.666,426.34 238.833,425.84 237.5,424C 238.737,423.768 239.737,423.268 240.5,422.5 Z M 246.5,426.5 C 252.593,429.91 252.76,433.91 247,438.5C 241.977,437.416 240.31,434.416 242,429.5C 243.409,428.219 244.909,427.219 246.5,426.5 Z"/></g>
<g><path style="opacity:0.899" fill="#1d1d1d" d="M 265.5,442.5 C 264.081,441.549 262.415,441.216 260.5,441.5C 260.737,440.209 260.404,439.209 259.5,438.5C 259.66,433.3 259.326,428.467 258.5,424C 260.872,421.845 262.872,422.178 264.5,425C 263.856,429.414 263.856,433.914 264.5,438.5C 273.359,437.961 273.692,439.294 265.5,442.5 Z"/></g>
<g><path style="opacity:0.7" fill="#1d1d1d" d="M 291.5,426.5 C 292.954,435.603 289.121,440.603 280,441.5C 271.943,439.477 269.276,434.477 272,426.5C 272.774,424.061 274.274,422.227 276.5,421C 283.173,418.955 288.173,420.788 291.5,426.5 Z M 279.5,424.5 C 285.589,424.98 287.423,428.314 285,434.5C 281.339,437.623 278.506,436.789 276.5,432C 276.415,429.297 277.415,426.797 279.5,424.5 Z"/></g>
<g><path style="opacity:0.897" fill="#1e1e1e" d="M 219.5,418.5 C 220.901,418.971 222.234,419.638 223.5,420.5C 224.911,423.91 226.411,427.243 228,430.5C 229.362,427.353 230.195,424.02 230.5,420.5C 232.484,420.383 234.15,421.05 235.5,422.5C 234.076,427.272 233.076,432.105 232.5,437C 232.833,437.333 233.167,437.667 233.5,438C 232.331,439.836 230.664,441.002 228.5,441.5C 226.056,438.262 223.89,434.928 222,431.5C 221.548,434.149 220.714,436.649 219.5,439C 217.163,439.325 215.497,438.325 214.5,436C 215.578,435.326 216.245,434.326 216.5,433C 217.164,428.856 217.664,424.689 218,420.5C 218.717,419.956 219.217,419.289 219.5,418.5 Z"/></g>
<g><path style="opacity:1" fill="#20733c" d="M 144.5,415.5 C 143.226,416.189 143.226,417.023 144.5,418C 149.078,419.932 153.078,422.598 156.5,426C 164.455,429.307 172.455,432.64 180.5,436C 182.847,436.436 185.181,436.936 187.5,437.5C 188.713,437.253 189.38,436.586 189.5,435.5C 193.839,437.798 198.505,438.964 203.5,439C 203.167,439.333 202.833,439.667 202.5,440C 204.441,440.743 206.274,440.576 208,439.5C 208.903,440.701 210.069,441.535 211.5,442C 209.243,448.258 207.743,455.092 207,462.5C 175.647,457.582 146.814,446.082 120.5,428C 118.343,426.088 116.009,424.421 113.5,423C 111.773,421.611 110.439,419.944 109.5,418C 113.656,412.171 118.156,406.671 123,401.5C 129.79,406.799 136.957,411.465 144.5,415.5 Z"/></g>
<g><path style="opacity:1" fill="#22733e" d="M 201.5,492.5 C 198.833,492.5 196.167,492.5 193.5,492.5C 193.167,491.167 192.833,491.167 192.5,492.5C 191.5,492.5 190.5,492.5 189.5,492.5C 174.127,487.323 158.794,481.823 143.5,476C 123.724,466.948 105.391,455.615 88.5,442C 93.3722,436.299 98.3722,430.799 103.5,425.5C 124.268,440.906 147.268,453.406 172.5,463C 182.962,466.426 193.628,469.093 204.5,471C 205.022,471.561 205.355,472.228 205.5,473C 204.223,479.551 202.89,486.051 201.5,492.5 Z"/></g>
<g><path style="opacity:0.951" fill="#3c7750" d="M 144.5,415.5 C 158.319,424.571 173.319,431.238 189.5,435.5C 189.38,436.586 188.713,437.253 187.5,437.5C 185.181,436.936 182.847,436.436 180.5,436C 172.455,432.64 164.455,429.307 156.5,426C 153.078,422.598 149.078,419.932 144.5,418C 143.226,417.023 143.226,416.189 144.5,415.5 Z"/></g>
<g><path style="opacity:0.008" fill="#7f807f" d="M 205.5,431.5 C 206.833,432.167 206.833,432.167 205.5,431.5 Z"/></g>
<g><path style="opacity:0.008" fill="#7f807f" d="M 310.5,433.5 C 311.833,434.167 311.833,434.167 310.5,433.5 Z"/></g>
<g><path style="opacity:0.024" fill="#999999" d="M 259.5,438.5 C 260.404,439.209 260.737,440.209 260.5,441.5C 262.415,441.216 264.081,441.549 265.5,442.5C 263.396,442.799 261.396,442.466 259.5,441.5C 258.209,440.473 258.209,439.473 259.5,438.5 Z"/></g>
<g><path style="opacity:0.427" fill="#4d8662" d="M 384.5,431.5 C 374.595,439.409 363.928,446.075 352.5,451.5C 355.683,448.219 359.349,445.385 363.5,443C 368.911,440.221 374.244,437.388 379.5,434.5C 379.5,433.5 379.5,432.5 379.5,431.5C 381.167,431.5 382.833,431.5 384.5,431.5 Z"/></g>
<g><path style="opacity:0.004" fill="#fefffe" d="M 360.5,456.5 C 359.833,455.167 359.833,455.167 360.5,456.5 Z"/></g>
</svg>
